<?xml version="1.0" encoding="utf-8"?>
<!-- Generator: Adobe Illustrator 22.0.1, SVG Export Plug-In . SVG Version: 6.00 Build 0)  -->
<svg version="1.1" id="Слой_1" xmlns="http://www.w3.org/2000/svg" xmlns:xlink="http://www.w3.org/1999/xlink" x="0px" y="0px"
	 viewBox="0 0 540 396" style="enable-background:new 0 0 540 396;" xml:space="preserve">
<style type="text/css">
	.st0{fill:#20A5E0;enable-background:new    ;}
	.st1{fill:#2E72A0;}
	.st2{fill:#FF4900;}
	.st3{fill:#FFBB71;}
	.st4{fill:#61D7A4;}
	.st5{fill:#F7C852;}
	.st6{fill:#33374F;}
	.st7{fill:#D1734A;}
	.st8{fill:#FFFFFF;}
	.st9{fill:#F9C3BA;}
	.st10{fill:#DDA7A1;}
	.st11{fill:#F7A985;}
	.st12{fill:#FF9200;}
	.st13{fill:#FFF4E4;}
	.st14{fill:#F4C5AB;}
	.st15{fill:#955953;}
	.st16{opacity:0.66;fill:#F58676;enable-background:new    ;}
	.st17{fill:#723312;}
	.st18{fill:#FBD236;}
	.st19{opacity:0.36;}
	.st20{fill:#3F1F22;}
	.st21{fill:#264588;}
	.st22{fill:#463691;}
	.st23{fill:#218359;}
	.st24{fill:#7C3F3F;}
	.st25{fill:#A55756;}
	.st26{fill:#257F89;}
	.st27{fill:#25646E;}
	.st28{fill:#934E4E;}
	.st29{opacity:0.6;fill:#F58676;enable-background:new    ;}
	.st30{font-family:'Verdana';}
	.st31{font-size:34px;}
</style>
<g id="эксп-воспит">
	<rect x="-0.1" y="-0.1" class="st0" width="540.7" height="396.5"/>
	<g>
		<path class="st1" d="M485.2,371.7H138.5c-3.2,0-5.9-2.7-5.9-5.9l0,0c0-3.2,2.7-5.9,5.9-5.9h346.6c3.2,0,5.9,2.7,5.9,5.9l0,0
			C491.1,369.1,488.4,371.7,485.2,371.7z"/>
		
			<rect x="275.4" y="241.9" transform="matrix(0.9934 -0.1145 0.1145 0.9934 -27.6139 33.5291)" class="st2" width="5.3" height="30.5"/>
		<polygon class="st3" points="278.9,241.6 273.8,242.2 275.1,239.1 275.8,237.4 276.9,238.9 		"/>
		<polygon class="st2" points="276.9,238.9 275.1,239.1 275.8,237.4 		"/>
		
			<rect x="272.4" y="243.6" transform="matrix(0.9452 -0.3266 0.3266 0.9452 -69.4549 104.0311)" class="st4" width="5.3" height="30.5"/>
		<polygon class="st3" points="272.6,243.5 267.7,245.2 268.3,241.9 268.7,240.1 270.1,241.3 		"/>
		<polygon class="st4" points="270.1,241.3 268.3,241.9 268.7,240.1 		"/>
		<polygon class="st5" points="284.9,270.8 272.8,270.8 270.3,254.8 287.3,254.8 		"/>
		<path class="st6" d="M274.1,362.5L274.1,362.5c-2.3,0-4.1-1.8-4.1-4.1v-85c0-2.2,1.8-4.1,4.1-4.1h0.1c2.2,0,4.1,1.8,4.1,4.1v85
			C278.2,360.7,276.4,362.5,274.1,362.5z"/>
		<path class="st7" d="M211.8,288.6L211.8,288.6c-0.8-2.9,0.9-6,3.9-6.8l79.3-21.6c2.9-0.8,6,0.9,6.8,3.9l0,0c0.8,2.9-0.9,6-3.9,6.8
			l-79.3,21.6C215.6,293.2,212.6,291.5,211.8,288.6z"/>
		<path class="st6" d="M223,359.6L223,359.6c0-2.3,1.8-4.1,4.1-4.1h71.3c2.3,0,4.1,1.8,4.1,4.1l0,0c0,2.3-1.8,4.1-4.1,4.1H227
			C224.8,363.7,223,361.9,223,359.6z"/>
		<path class="st6" d="M164.4,364.2L164.4,364.2c-1.2,0-2.2-1-2.2-2.2v-37.9c0-1.2,1-2.2,2.2-2.2l0,0c1.2,0,2.2,1,2.2,2.2V362
			C166.7,363.2,165.7,364.2,164.4,364.2z"/>
		<path class="st6" d="M204.2,364.2L204.2,364.2c-1.2,0-2.2-1-2.2-2.2v-37.9c0-1.2,1-2.2,2.2-2.2l0,0c1.2,0,2.2,1,2.2,2.2V362
			C206.4,363.2,205.4,364.2,204.2,364.2z"/>
		<path class="st6" d="M164.4,345.7L164.4,345.7c0-1.2,1-2.2,2.2-2.2h37.9c1.2,0,2.2,1,2.2,2.2l0,0c0,1.2-1,2.2-2.2,2.2h-37.9
			C165.4,347.9,164.4,346.9,164.4,345.7z"/>
		<path class="st6" d="M164.6,318.4l-3.4-0.7c-8.2-1.8-13.9-9.2-13.5-17.6c0.2-4.7,0.3-6.4,0.3-7.1h4.5c0,1-0.1,3.4-0.3,7.3
			c-0.3,6.2,3.9,11.7,10,13.1l3.4,0.7L164.6,318.4z"/>
		<path class="st2" d="M206.2,324.6h-43.6c-4.2,0-7.7-3.5-7.7-7.7l0,0c0-4.2,3.5-7.7,7.7-7.7h43.6c4.2,0,7.7,3.5,7.7,7.7l0,0
			C213.8,321.2,210.4,324.6,206.2,324.6z"/>
		<path class="st2" d="M150.2,294.9L150.2,294.9c-4.1,0-7.4-3.3-7.4-7.4V263c0-4.1,3.3-7.4,7.4-7.4l0,0c4.1,0,7.4,3.3,7.4,7.4v24.5
			C157.6,291.6,154.3,294.9,150.2,294.9z"/>
		
			<rect x="222.3" y="271.5" transform="matrix(0.9645 -0.264 0.264 0.9645 -63.0219 75.3112)" class="st8" width="52.8" height="1.3"/>
		<path class="st9" d="M404.3,290v2.3c0,1.7-0.3,3.4-0.8,5c0,0,0,0,0,0.1h-15.8l1.7-21h7.8C401.6,279.5,404.3,284.4,404.3,290z"/>
		<path class="st6" d="M450.3,363.7L450.3,363.7c1.2,0,2.2-1,2.2-2.2v-37.9c0-1.2-1-2.2-2.2-2.2l0,0c-1.2,0-2.2,1-2.2,2.2v37.9
			C448,362.7,449,363.7,450.3,363.7z"/>
		<path class="st6" d="M410.5,363.7L410.5,363.7c1.2,0,2.2-1,2.2-2.2v-37.9c0-1.2-1-2.2-2.2-2.2l0,0c-1.2,0-2.2,1-2.2,2.2v37.9
			C408.3,362.7,409.3,363.7,410.5,363.7z"/>
		<path class="st6" d="M450.3,345.2L450.3,345.2c0-1.2-1-2.2-2.2-2.2h-37c-1.2,0-2.2,1-2.2,2.2l0,0c0,1.2,1,2.2,2.2,2.2h37
			C449.3,347.4,450.3,346.4,450.3,345.2z"/>
		<path class="st6" d="M453.3,317.9l-1-4.4l2.5-0.6c0.4-0.5,1-1,1.7-1.6c2.3-2.2,9.3-8.8,9.2-11.6c-0.2-3.9-0.3-6.3-0.3-7.3h4.5
			c0,0.6,0.1,2.3,0.3,7.1c0.2,4.5-5.3,10.2-10.6,15.1c-0.7,0.6-1.4,1.3-1.6,1.6c0.4-0.4,0.6-1.5,0.1-2.4c-0.5-0.8-1.4-1.2-2.3-1
			l1,4.4L453.3,317.9z"/>
		<path class="st2" d="M408.5,323.6h43.6c4.2,0,7.7-3.5,7.7-7.7l0,0c0-4.2-3.5-7.7-7.7-7.7h-43.6c-4.2,0-7.7,3.5-7.7,7.7l0,0
			C400.9,320.2,404.3,323.6,408.5,323.6z"/>
		<path class="st2" d="M464.5,294.4L464.5,294.4c4.1,0,7.4-3.3,7.4-7.4v-24.5c0-4.1-3.3-7.4-7.4-7.4l0,0c-4.1,0-7.4,3.3-7.4,7.4V287
			C457.1,291,460.4,294.4,464.5,294.4z"/>
		<path class="st10" d="M229.8,256.3l1.4-1.4c1.6-1.7,4.3-1.7,6,0l0,0c1.7,1.6,1.7,4.3,0,6l-1.4,1.4c-1.6,1.7-4.3,1.7-6,0l0,0
			C228.2,260.6,228.2,257.9,229.8,256.3z"/>
		<path class="st11" d="M235.3,259.4l6-6.1c0.4-0.4,1.2-0.5,1.6,0l0,0c0.4,0.4,0.5,1.2,0,1.6l-6,6.1c-0.4,0.4-1.2,0.5-1.6,0l0,0
			C234.9,260.6,234.9,259.9,235.3,259.4z"/>
		<path class="st11" d="M234.9,255.3l4.8-4.9c0.4-0.4,1.2-0.5,1.6,0l0,0c0.4,0.4,0.5,1.2,0,1.6l-4.8,4.9c-0.4,0.4-1.2,0.5-1.6,0l0,0
			C234.5,256.5,234.5,255.8,234.9,255.3z"/>
		<path class="st11" d="M231.9,254.5l5.7-5.8c0.4-0.4,1.2-0.5,1.6,0l0,0c0.4,0.4,0.5,1.2,0,1.6l-5.7,5.8c-0.4,0.4-1.2,0.5-1.6,0l0,0
			C231.5,255.6,231.5,254.9,231.9,254.5z"/>
		<path class="st11" d="M213.4,273.8c-13.5,0-25.3-10.1-25.8-10.6c-1.8-1.6-2-4.3-0.4-6.1c1.6-1.8,4.3-2,6.1-0.4
			c0.2,0.2,10.7,9.1,21.3,8.4c7.7-0.5,14.7-8.3,14.7-8.4c1.6-1.8,4.3-2,6.1-0.4s2,4.3,0.4,6.1c-0.4,0.4-9.3,10.6-20.7,11.3
			C214.5,273.8,214,273.8,213.4,273.8z"/>
		<path class="st12" d="M200.3,266.2L200.3,266.2c1.2-3.3-0.4-6.9-3.7-8.2l-5.8-2.8c-3.3-1.2-9-1.7-10.3,1.5l-1.1,3
			c-1.2,3.3,3.8,6.7,7.1,8l5.6,2.1C195.4,271.1,199,269.4,200.3,266.2z"/>
		<g>
			<path class="st5" d="M203.2,309.9l-35.3-9.6l-3-28.4c-0.1-0.8-0.1-1.6-0.1-2.4c0-6.8,2.9-12.9,7.5-16.4c0.5-0.4,1-0.7,1.5-1
				c1.8-1.1,3.9-1.8,6.1-2c0.5-0.1,1-0.1,1.5,0c1.2,0,2.3,0.3,3.4,0.7c0.1,0.1,0.3,0.1,0.4,0.2c1.2,0.5,2.3,1.1,3.4,2
				c4.9,3.8,8.4,11,9.1,18.3l1.6,11.3L203.2,309.9z"/>
		</g>
		<path class="st11" d="M229.1,335.3l-8.5,9.3c0,0-4.4-26.1-10.9-32.1c-5-4.6-26.6-8.1-26.6-8.1l8.5-9.3c0,0,21.2,3.1,26.1,7.6
			C224.3,308.9,229.1,335.3,229.1,335.3z"/>
		<g>
			<path class="st13" d="M216.6,335.3c0.3,1.4,1.9,9.5,1.9,9.5l14.6-3.2l-2.1-9.5L216.6,335.3z"/>
		</g>
		<path class="st2" d="M239.8,344.5l-20.4,4.4l-2.1-9.5l11.2-2.4c5.3-1.2,10,1.8,11.2,7.1L239.8,344.5z"/>
		<path class="st14" d="M212.9,338.6l-9.5,8.3c0,0-1.7-26.4-7.5-33c-4.5-5.1-25.6-10.8-25.6-10.8l10.9-5.5c0,0,19.3,2.5,23.7,7.6
			C210.9,311.8,212.9,338.6,212.9,338.6z"/>
		<g>
			<path class="st13" d="M200.4,337.3c0.2,1.4,0.9,9.7,0.9,9.7l14.9-1.6l-1.1-9.7L200.4,337.3z"/>
		</g>
		<path class="st2" d="M222.5,348.9l-20.7,2.3l-1.1-9.7l11.4-1.2c5.4-0.6,9.8,2.9,10.3,8.3L222.5,348.9z"/>
		<g>
			<path class="st12" d="M221.7,299c0.4,0.3,0.7,0.9,0.7,1.5c0,1-0.7,1.8-1.6,1.8c-0.9,0-1.6-0.8-1.6-1.8s0.7-1.8,1.6-1.8h0.1
				l-11.1-4.3c-0.1,0.9-0.8,1.5-1.6,1.5c-0.9,0-1.6-0.8-1.6-1.8c0-0.3,0.1-0.6,0.2-0.9l-6.3-2.4L196,292c-0.3,0.3-0.7,0.4-1.1,0.4
				c-0.1,0-0.2,0-0.3,0l-18.1,5.1c-0.1,0.9-0.8,1.6-1.6,1.6c-0.6,0-1-0.3-1.3-0.8l-5.7,1.6l1.9,14c0.2-0.1,0.3-0.1,0.5-0.1
				c0.9,0,1.6,0.8,1.6,1.8s-0.7,1.8-1.6,1.8c0,0,0,0-0.1,0l1.3,9.3c0.2-0.2,0.5-0.3,0.9-0.3c0.9,0,1.6,0.8,1.6,1.8s-0.7,1.8-1.6,1.8
				c-0.1,0-0.3,0-0.4-0.1l0.3,2.5c0,0,14,4.7,32.3-6.9c2.3-1.5,4.4-3,6.1-4.6c-0.6-0.3-1-0.9-1-1.6c0-1,0.7-1.8,1.6-1.8
				c0.8,0,1.4,0.6,1.6,1.4c9.9-9.9,9.9-19.6,9.9-19.6L221.7,299z M214.3,296.3c0.9,0,1.6,0.8,1.6,1.8s-0.7,1.8-1.6,1.8
				c-0.9,0-1.6-0.8-1.6-1.8C212.6,297.1,213.4,296.3,214.3,296.3z M201.5,291.8c0.9,0,1.6,0.8,1.6,1.8s-0.7,1.8-1.6,1.8
				c-0.9,0-1.6-0.8-1.6-1.8C199.9,292.6,200.6,291.8,201.5,291.8z M204.2,305.3c0.9,0,1.6,0.8,1.6,1.8s-0.7,1.8-1.6,1.8
				c-0.9,0-1.6-0.8-1.6-1.8C202.6,306.1,203.3,305.3,204.2,305.3z M198.5,299c0.9,0,1.6,0.8,1.6,1.8s-0.7,1.8-1.6,1.8
				s-1.6-0.8-1.6-1.8S197.6,299,198.5,299z M192.4,295.1c0.9,0,1.6,0.8,1.6,1.8s-0.7,1.8-1.6,1.8c-0.9,0-1.6-0.8-1.6-1.8
				C190.7,295.9,191.5,295.1,192.4,295.1z M188,300.4c0.9,0,1.6,0.8,1.6,1.8s-0.7,1.8-1.6,1.8c-0.9,0-1.6-0.8-1.6-1.8
				C186.3,301.2,187.1,300.4,188,300.4z M185,307.6c0.9,0,1.6,0.8,1.6,1.8s-0.7,1.8-1.6,1.8s-1.6-0.8-1.6-1.8S184.1,307.6,185,307.6
				z M181.3,297.5c0.9,0,1.6,0.8,1.6,1.8s-0.7,1.8-1.6,1.8c-0.9,0-1.6-0.8-1.6-1.8S180.4,297.5,181.3,297.5z M181.1,312.5
				c0,1-0.7,1.8-1.6,1.8c-0.9,0-1.6-0.8-1.6-1.8s0.7-1.8,1.6-1.8C180.3,310.7,181.1,311.5,181.1,312.5z M178.8,303.6
				c0.9,0,1.6,0.8,1.6,1.8s-0.7,1.8-1.6,1.8c-0.9,0-1.6-0.8-1.6-1.8S177.9,303.6,178.8,303.6z M170.2,304.5c0-1,0.7-1.8,1.6-1.8
				s1.6,0.8,1.6,1.8s-0.7,1.8-1.6,1.8S170.2,305.5,170.2,304.5z M172.8,311.3c-0.9,0-1.6-0.8-1.6-1.8s0.7-1.8,1.6-1.8
				c0.9,0,1.6,0.8,1.6,1.8C174.5,310.6,173.7,311.3,172.8,311.3z M174.8,319.7c0-1,0.7-1.8,1.6-1.8c0.9,0,1.6,0.8,1.6,1.8
				s-0.7,1.8-1.6,1.8C175.5,321.4,174.8,320.6,174.8,319.7z M179,333c-0.9,0-1.6-0.8-1.6-1.8s0.7-1.8,1.6-1.8s1.6,0.8,1.6,1.8
				S179.9,333,179,333z M180.9,327c-0.9,0-1.6-0.8-1.6-1.8s0.7-1.8,1.6-1.8c0.9,0,1.6,0.8,1.6,1.8S181.8,327,180.9,327z
				 M183.4,320.9c-0.9,0-1.6-0.8-1.6-1.8s0.7-1.8,1.6-1.8c0.9,0,1.6,0.8,1.6,1.8S184.3,320.9,183.4,320.9z M187,330.9
				c-0.9,0-1.6-0.8-1.6-1.8s0.7-1.8,1.6-1.8c0.9,0,1.6,0.8,1.6,1.8S187.9,330.9,187,330.9z M190,323.8c-0.9,0-1.6-0.8-1.6-1.8
				s0.7-1.8,1.6-1.8s1.6,0.8,1.6,1.8S190.9,323.8,190,323.8z M190.3,315.4c-0.9,0-1.6-0.8-1.6-1.8s0.7-1.8,1.6-1.8
				c0.9,0,1.6,0.8,1.6,1.8C192,314.6,191.2,315.4,190.3,315.4z M191.2,307.5c0-1,0.7-1.8,1.6-1.8s1.6,0.8,1.6,1.8s-0.7,1.8-1.6,1.8
				S191.2,308.4,191.2,307.5z M195.2,328.9c-0.9,0-1.6-0.8-1.6-1.8s0.7-1.8,1.6-1.8c0.9,0,1.6,0.8,1.6,1.8
				C196.9,328.1,196.1,328.9,195.2,328.9z M196.5,319.3c-0.9,0-1.6-0.8-1.6-1.8s0.7-1.8,1.6-1.8s1.6,0.8,1.6,1.8
				S197.4,319.3,196.5,319.3z M197.8,310.4c0-1,0.7-1.8,1.6-1.8c0.9,0,1.6,0.8,1.6,1.8s-0.7,1.8-1.6,1.8
				C198.6,312.1,197.8,311.3,197.8,310.4z M202.1,324.4c-0.9,0-1.6-0.8-1.6-1.8s0.7-1.8,1.6-1.8s1.6,0.8,1.6,1.8
				C203.8,323.6,203.1,324.4,202.1,324.4z M204.7,318.3c-0.9,0-1.6-0.8-1.6-1.8s0.7-1.8,1.6-1.8s1.6,0.8,1.6,1.8
				S205.6,318.3,204.7,318.3z M206.7,302.7c-0.9,0-1.6-0.8-1.6-1.8s0.7-1.8,1.6-1.8c0.9,0,1.6,0.8,1.6,1.8
				C208.4,301.9,207.6,302.7,206.7,302.7z M210.3,312.8c-0.9,0-1.6-0.8-1.6-1.8s0.7-1.8,1.6-1.8c0.9,0,1.6,0.8,1.6,1.8
				C212,312,211.2,312.8,210.3,312.8z M211.7,303.9c0-1,0.7-1.8,1.6-1.8c0.9,0,1.6,0.8,1.6,1.8s-0.7,1.8-1.6,1.8
				C212.4,305.6,211.7,304.8,211.7,303.9z M214.9,315.7c-0.9,0-1.6-0.8-1.6-1.8s0.7-1.8,1.6-1.8c0.9,0,1.6,0.8,1.6,1.8
				C216.6,314.9,215.8,315.7,214.9,315.7z M217.4,309.6c-0.9,0-1.6-0.8-1.6-1.8s0.7-1.8,1.6-1.8s1.6,0.8,1.6,1.8
				C219.1,308.8,218.3,309.6,217.4,309.6z"/>
			<path class="st13" d="M171.9,315.7c0-1-0.7-1.8-1.6-1.8c-0.2,0-0.4,0-0.5,0.1l0.5,3.4c0,0,0,0,0.1,0
				C171.2,317.5,171.9,316.7,171.9,315.7z"/>
			<path class="st13" d="M178.1,319.7c0-1-0.7-1.8-1.6-1.8c-0.9,0-1.6,0.8-1.6,1.8s0.7,1.8,1.6,1.8
				C177.3,321.4,178.1,320.6,178.1,319.7z"/>
			<path class="st13" d="M177.8,312.5c0,1,0.7,1.8,1.6,1.8c0.9,0,1.6-0.8,1.6-1.8s-0.7-1.8-1.6-1.8S177.8,311.5,177.8,312.5z"/>
			<path class="st13" d="M172.8,307.8c-0.9,0-1.6,0.8-1.6,1.8s0.7,1.8,1.6,1.8c0.9,0,1.6-0.8,1.6-1.8
				C174.5,308.6,173.7,307.8,172.8,307.8z"/>
			<path class="st13" d="M178.8,307.2c0.9,0,1.6-0.8,1.6-1.8s-0.7-1.8-1.6-1.8c-0.9,0-1.6,0.8-1.6,1.8
				C177.2,306.4,177.9,307.2,178.8,307.2z"/>
			<ellipse class="st13" cx="185" cy="309.3" rx="1.6" ry="1.8"/>
			<path class="st13" d="M188,303.9c0.9,0,1.6-0.8,1.6-1.8s-0.7-1.8-1.6-1.8c-0.9,0-1.6,0.8-1.6,1.8
				C186.3,303.1,187.1,303.9,188,303.9z"/>
			<path class="st13" d="M181.3,301c0.9,0,1.6-0.8,1.6-1.8s-0.7-1.8-1.6-1.8c-0.9,0-1.6,0.8-1.6,1.8S180.4,301,181.3,301z"/>
			<path class="st13" d="M180.9,323.5c-0.9,0-1.6,0.8-1.6,1.8s0.7,1.8,1.6,1.8c0.9,0,1.6-0.8,1.6-1.8S181.8,323.5,180.9,323.5z"/>
			<path class="st13" d="M187,327.4c-0.9,0-1.6,0.8-1.6,1.8s0.7,1.8,1.6,1.8c0.9,0,1.6-0.8,1.6-1.8S187.9,327.4,187,327.4z"/>
			<ellipse class="st13" cx="190" cy="322" rx="1.6" ry="1.8"/>
			<path class="st13" d="M183.4,317.3c-0.9,0-1.6,0.8-1.6,1.8s0.7,1.8,1.6,1.8c0.9,0,1.6-0.8,1.6-1.8
				C185,318.1,184.3,317.3,183.4,317.3z"/>
			<path class="st13" d="M190.3,311.8c-0.9,0-1.6,0.8-1.6,1.8s0.7,1.8,1.6,1.8c0.9,0,1.6-0.8,1.6-1.8
				C192,312.6,191.2,311.8,190.3,311.8z"/>
			<ellipse class="st13" cx="196.5" cy="317.5" rx="1.6" ry="1.8"/>
			<path class="st13" d="M201.1,310.4c0-1-0.7-1.8-1.6-1.8c-0.9,0-1.6,0.8-1.6,1.8s0.7,1.8,1.6,1.8
				C200.4,312.1,201.1,311.3,201.1,310.4z"/>
			<ellipse class="st13" cx="192.8" cy="307.5" rx="1.6" ry="1.8"/>
			<path class="st13" d="M192.4,298.6c0.9,0,1.6-0.8,1.6-1.8s-0.7-1.8-1.6-1.8c-0.9,0-1.6,0.8-1.6,1.8
				C190.7,297.8,191.5,298.6,192.4,298.6z"/>
			<path class="st13" d="M198.5,302.6c0.9,0,1.6-0.8,1.6-1.8s-0.7-1.8-1.6-1.8s-1.6,0.8-1.6,1.8
				C196.9,301.8,197.6,302.6,198.5,302.6z"/>
			<path class="st13" d="M201.5,295.4c0.9,0,1.6-0.8,1.6-1.8s-0.7-1.8-1.6-1.8c-0.9,0-1.6,0.8-1.6,1.8S200.6,295.4,201.5,295.4z"/>
			<path class="st13" d="M196,292l-1.4,0.4c0.1,0,0.2,0,0.3,0C195.3,292.5,195.7,292.3,196,292z"/>
			<path class="st13" d="M202.6,307.1c0,1,0.7,1.8,1.6,1.8c0.9,0,1.6-0.8,1.6-1.8s-0.7-1.8-1.6-1.8
				C203.3,305.3,202.6,306.1,202.6,307.1z"/>
			<path class="st13" d="M210.3,309.3c-0.9,0-1.6,0.8-1.6,1.8s0.7,1.8,1.6,1.8c0.9,0,1.6-0.8,1.6-1.8
				C212,310.1,211.2,309.3,210.3,309.3z"/>
			<path class="st13" d="M215,303.9c0-1-0.7-1.8-1.6-1.8c-0.9,0-1.6,0.8-1.6,1.8s0.7,1.8,1.6,1.8C214.2,305.6,215,304.8,215,303.9z"
				/>
			<path class="st13" d="M206.7,299.2c-0.9,0-1.6,0.8-1.6,1.8s0.7,1.8,1.6,1.8c0.9,0,1.6-0.8,1.6-1.8
				C208.4,300,207.6,299.2,206.7,299.2z"/>
			<path class="st13" d="M208.1,295.9c0.8,0,1.5-0.7,1.6-1.5l-3-1.2c-0.1,0.3-0.2,0.6-0.2,0.9C206.5,295.1,207.2,295.9,208.1,295.9z
				"/>
			<path class="st13" d="M214.3,299.8c0.9,0,1.6-0.8,1.6-1.8s-0.7-1.8-1.6-1.8c-0.9,0-1.6,0.8-1.6,1.8
				C212.6,299,213.4,299.8,214.3,299.8z"/>
			<ellipse class="st13" cx="202.1" cy="322.7" rx="1.6" ry="1.8"/>
			<path class="st13" d="M211.3,317.6c-0.9,0-1.6,0.8-1.6,1.8c0,0.7,0.4,1.4,1,1.6c0.8-0.7,1.5-1.4,2.2-2.1
				C212.7,318.2,212.1,317.6,211.3,317.6z"/>
			<ellipse class="st13" cx="204.7" cy="316.5" rx="1.6" ry="1.8"/>
			<path class="st13" d="M195.2,325.3c-0.9,0-1.6,0.8-1.6,1.8s0.7,1.8,1.6,1.8c0.9,0,1.6-0.8,1.6-1.8
				C196.9,326.1,196.1,325.3,195.2,325.3z"/>
			<path class="st13" d="M214.9,312.2c-0.9,0-1.6,0.8-1.6,1.8s0.7,1.8,1.6,1.8c0.9,0,1.6-0.8,1.6-1.8
				C216.6,313,215.8,312.2,214.9,312.2z"/>
			<ellipse class="st13" cx="217.4" cy="307.8" rx="1.6" ry="1.8"/>
			<path class="st13" d="M219.1,300.4c0,1,0.7,1.8,1.6,1.8c0.9,0,1.6-0.8,1.6-1.8c0-0.6-0.3-1.1-0.7-1.5l-0.8-0.3h-0.1
				C219.8,298.7,219.1,299.5,219.1,300.4z"/>
			<ellipse class="st13" cx="179" cy="331.2" rx="1.6" ry="1.8"/>
			<path class="st13" d="M174,328.3c0-1-0.7-1.8-1.6-1.8c-0.3,0-0.6,0.1-0.9,0.3l0.4,3.2c0.1,0,0.3,0.1,0.4,0.1
				C173.3,330.1,174,329.3,174,328.3z"/>
			<path class="st13" d="M173.5,304.5c0-1-0.7-1.8-1.6-1.8s-1.6,0.8-1.6,1.8s0.7,1.8,1.6,1.8S173.5,305.5,173.5,304.5z"/>
			<path class="st13" d="M174.9,299.1c0.8,0,1.5-0.7,1.6-1.6l-3,0.8C173.8,298.8,174.3,299.1,174.9,299.1z"/>
		</g>
		<g>
			<g>
				<path class="st14" d="M210,273.1l1.7-1.1c1.9-1.3,4.5-0.7,5.8,1.2v0.1c1.3,1.9,0.7,4.5-1.2,5.8l-1.7,1.1
					c-1.9,1.3-4.5,0.7-5.8-1.2v-0.1C207.5,277,208,274.4,210,273.1z"/>
				<path class="st14" d="M214.7,277.3l7.2-4.7c0.5-0.3,1.2-0.2,1.6,0.3l0,0c0.3,0.5,0.2,1.2-0.3,1.6l-7.2,4.7
					c-0.5,0.3-1.2,0.2-1.6-0.3l0,0C214,278.3,214.2,277.6,214.7,277.3z"/>
				<path class="st14" d="M215.2,273.2l5.7-3.8c0.5-0.3,1.2-0.2,1.6,0.3l0,0c0.3,0.5,0.2,1.2-0.3,1.6l-5.7,3.8
					c-0.5,0.3-1.2,0.2-1.6-0.3l0,0C214.5,274.3,214.7,273.6,215.2,273.2z"/>
				<path class="st14" d="M212.4,271.7l6.8-4.5c0.5-0.3,1.2-0.2,1.6,0.3l0,0c0.3,0.5,0.2,1.2-0.3,1.6l-6.8,4.5
					c-0.5,0.3-1.2,0.2-1.6-0.3l0,0C211.7,272.8,211.9,272.1,212.4,271.7z"/>
				<path class="st14" d="M209.2,275.9l3.5-7.3c0.3-0.6,1-0.8,1.5-0.5l0,0c0.6,0.3,0.8,1,0.5,1.5l-3.5,7.3c-0.3,0.6-1,0.8-1.5,0.5
					l0,0C209.2,277.1,208.9,276.4,209.2,275.9z"/>
			</g>
			<path class="st14" d="M195.1,287.3c-1,0-2.1-0.1-3.2-0.2c-14.1-2.1-24.2-15.5-24.7-16c-1.4-1.9-1-4.6,0.9-6s4.6-1,6,0.9l0,0
				c0.1,0.1,8.5,11.1,19,12.7c7.7,1.1,16.1-5.1,16.2-5.1c1.9-1.4,4.6-1,6,0.9s1.1,4.6-0.8,6C214.2,280.6,205.2,287.3,195.1,287.3z"
				/>
		</g>
		<path class="st12" d="M171,277.6l-2.8-2.3c-3-2.4-3.5-6.8-1.1-9.8l0,0c2.4-3,6.8-3.5,9.8-1.1l2.8,2.3c3,2.4,3.5,6.8,1.1,9.8l0,0
			C178.4,279.5,174,280,171,277.6z"/>
		<path class="st8" d="M185.4,252.6c0,3.7-3,6.6-6.6,6.6c-3.5,0-6.3-2.7-6.6-6.1c0.5-0.4,1-0.7,1.5-1c1.8-1.1,3.9-1.8,6.1-2
			c0.5-0.1,1-0.1,1.5,0c1.2,0,2.3,0.3,3.4,0.7c0.1,0.1,0.3,0.1,0.4,0.2C185.4,251.5,185.4,252,185.4,252.6z"/>
		<path class="st15" d="M184.9,242.1l1.7-1.1c12.3-7.9,15.8-24.2,8-36.4l-0.2-0.3c-7.9-12.3-24.2-15.8-36.4-8l-1.7,1.1
			c-12.3,7.9-15.8,24.2-8,36.4l0.2,0.3C156.3,246.4,172.6,249.9,184.9,242.1z"/>
		<path class="st11" d="M179.3,257.7L179.3,257.7c-2.4,0.2-4.4-1.7-4.7-4.3l-1-10.6l8.7-0.9l1,10.6
			C183.6,255.1,181.7,257.4,179.3,257.7z"/>
		<path class="st14" d="M198,208.7l2.7,6.9c0.2,0.4,0.1,0.9,0.2,1.3c1,3,1.3,6.2,1.1,9.2c-0.6,9.1-6.4,17.8-15.5,21.3l-0.7,0.3
			c-12.4,4.8-26.9-1.5-31.8-14l-2.7-6.9c-4.8-12.4,2-25.7,14.5-30.6l0.7-0.3C179,191.1,193.1,196.2,198,208.7z"/>
		<path class="st8" d="M194.2,226.9c1.1,2.9-0.4,7.7-4,9.1c-3.6,1.4-8-1.2-9.1-4L194.2,226.9z"/>
		<path class="st16" d="M187.8,224.9l-2.9,1.1c-0.5,0.2-1.1-0.1-1.3-0.6l0,0c-0.2-0.5,0.1-1.1,0.6-1.3l2.9-1.1
			c0.5-0.2,1.1,0.1,1.3,0.6l0,0C188.6,224.1,188.4,224.7,187.8,224.9z"/>
		<ellipse class="st16" cx="170.9" cy="233" rx="4.6" ry="4.6"/>
		<path class="st16" d="M200.7,217c1,3,1.3,6,1.1,9c-2.1,0.4-4.2-0.8-5-2.8c-0.9-2.4,0.3-5,2.6-5.9C199.8,217.1,200.3,217,200.7,217
			z"/>
		<path class="st15" d="M173.4,209.5l-10.7,6.1c-5.1,2.9-7.5,9-5.7,14.7l0,0l-0.9,11.4c0,0-6.2-4.2-9.6-14.4
			c-3.4-10.3,0.9-32.3,26.9-32.8V209.5z"/>
		<path class="st14" d="M160.4,232.2c1.1,2.8-0.3,6-3.1,7.1l0,0c-2.8,1.1-6-0.3-7.1-3.1l0,0c-1.1-2.8,0.3-6,3.1-7.1l0,0
			C156.2,228,159.3,229.4,160.4,232.2L160.4,232.2z"/>
		<path class="st17" d="M172,225.3c-0.5,0-0.9-0.4-0.9-0.9c0-0.1,0-2.9,2.8-4.2s5.3,0.8,5.4,0.9c0.4,0.3,0.4,0.9,0.1,1.3
			c-0.3,0.4-0.9,0.4-1.3,0.1c-0.1-0.1-1.8-1.4-3.4-0.6c-1.7,0.8-1.7,2.5-1.7,2.6C172.9,224.8,172.5,225.3,172,225.3L172,225.3z"/>
		<path class="st17" d="M188.1,218.9c-0.5,0-0.9-0.4-0.9-0.9c0-0.1,0-2.9,2.8-4.2s5.3,0.8,5.4,0.9c0.4,0.3,0.4,0.9,0.1,1.3
			c-0.3,0.4-0.9,0.4-1.3,0.1c-0.1-0.1-1.8-1.4-3.4-0.6c-1.7,0.8-1.7,2.5-1.7,2.6C189,218.5,188.6,218.9,188.1,218.9L188.1,218.9z"/>
		<path class="st15" d="M166.6,212.1l2.2,6l32.3-12.9c0,0-7.4-16.7-26.5-13.3C174.6,192,161.8,193.9,166.6,212.1z"/>
		<path class="st15" d="M124.7,222.3c0,0,18.5-4.7,22-8.6c3.6-3.9,3.3-9.9-0.6-13.5c-3.9-3.6-9.9-3.3-13.5,0.6
			C129.1,204.7,124.7,222.3,124.7,222.3z"/>
		<path class="st15" d="M157.7,201.6c0,0,17.6-1.7,21.7-5c4.1-3.3,4.7-9.3,1.4-13.4c-3.3-4.1-9.3-4.7-13.4-1.4
			C163.3,185.1,157.7,201.6,157.7,201.6z"/>
		<g>
			<path class="st18" d="M146.6,203l2.7,12.8c0.6,2.6-2.1,4.7-4.5,3.4l-3.9-2.1c-2.4-1.3-2.2-4.9,0.4-5.8l12.6-4.3
				c2.6-0.9,2.8-4.5,0.4-5.8l-3.3-1.7C148.6,198.3,146,200.4,146.6,203z"/>
			<path class="st8" d="M147,212.8c1.5,0.6,3.2-0.2,3.8-1.7c0.6-1.6-0.2-3.3-1.7-3.9c-1.5-0.6-3.2,0.2-3.8,1.7
				C144.7,210.5,145.5,212.2,147,212.8z"/>
		</g>
		<g>
			<path class="st18" d="M183.1,184.3l-9.6,8.9c-2,1.8-5.1,0.6-5.2-2.1l-0.2-4.4c-0.1-2.7,3.1-4.4,5.2-2.6l10.1,8.6
				c2.1,1.8,5.3,0.1,5.2-2.6l-0.2-3.7C188.1,183.7,185,182.5,183.1,184.3z"/>
			<ellipse class="st8" cx="177.8" cy="189.2" rx="3" ry="3"/>
		</g>
		<g class="st19">
			<path class="st20" d="M189.7,210c-0.2,0-0.3-0.1-0.4-0.3c-3.3-10.1-10.1-12.7-10.1-12.7c-0.2-0.1-0.3-0.3-0.2-0.5
				s0.3-0.3,0.5-0.3c0.3,0.1,7.2,2.7,10.6,13.2c0.1,0.2,0,0.5-0.3,0.5C189.8,210,189.7,210,189.7,210z"/>
			<path class="st20" d="M182,212.9c-0.2,0-0.3-0.1-0.4-0.3c-2.9-8.3-8.4-12.2-8.5-12.2c-0.2-0.1-0.2-0.4-0.1-0.6
				c0.1-0.2,0.4-0.2,0.6-0.1c0.2,0.2,5.8,4.1,8.8,12.6c0.1,0.2,0,0.5-0.3,0.5C182.1,212.9,182,212.9,182,212.9z"/>
			<path class="st20" d="M174.2,216c-0.2,0-0.3-0.1-0.4-0.3c-2.6-8.3-7.7-11-7.8-11c-0.2-0.1-0.3-0.4-0.2-0.6
				c0.1-0.2,0.4-0.3,0.6-0.2c0.2,0.1,5.5,2.8,8.2,11.5c0.1,0.2-0.1,0.5-0.3,0.5C174.3,216,174.2,216,174.2,216z"/>
			<path class="st20" d="M197.4,206.8c-0.2,0-0.3-0.1-0.4-0.3c-2.4-7.5-9-11-9-11c-0.2-0.1-0.3-0.4-0.2-0.6c0.1-0.2,0.4-0.3,0.6-0.2
				c0.3,0.1,7,3.7,9.5,11.5c0.1,0.2-0.1,0.5-0.3,0.5C197.5,206.7,197.5,206.8,197.4,206.8z"/>
		</g>
		<path class="st13" d="M183.8,261.7c0.2,0.7-0.2,1.3-0.7,1.4c-0.6,0.1-1.1-0.3-1.3-1s0.2-1.3,0.7-1.4
			C183.1,260.6,183.7,261,183.8,261.7z"/>
		<path class="st13" d="M185.1,266.7c0.2,0.7-0.2,1.3-0.7,1.4s-1.1-0.3-1.3-1s0.2-1.3,0.7-1.4C184.4,265.6,184.9,266.1,185.1,266.7z
			"/>
		
			<rect x="233.5" y="242.9" transform="matrix(0.9447 -0.3279 0.3279 0.9447 -70.1505 91.2099)" class="st21" width="3.8" height="21.5"/>
		<polygon class="st3" points="233.6,242.8 230.1,244.1 230.6,241.7 230.8,240.4 231.8,241.3 		"/>
		<polygon class="st22" points="231.8,241.3 230.6,241.7 230.8,240.4 		"/>
		<path class="st11" d="M229.6,259.2l1.9-7.9c0.1-0.6,0.8-1,1.4-0.8l0,0c0.6,0.1,1,0.8,0.8,1.4l-1.9,7.9c-0.1,0.6-0.8,1-1.4,0.8l0,0
			C229.8,260.4,229.5,259.8,229.6,259.2z"/>
		<g>
			<path class="st14" d="M345.8,218.8l-3.1-0.8c-3.5-1-7.2,1.1-8.2,4.7v0.1c-1,3.5,1.1,7.2,4.7,8.2l3.1,0.8c3.5,1,7.2-1.1,8.2-4.7
				V227C351.4,223.5,349.3,219.8,345.8,218.8z"/>
			<path class="st14" d="M340.6,227.6l-13.2-3.6c-1-0.3-2,0.3-2.2,1.3l0,0c-0.3,1,0.3,2,1.3,2.2l13.2,3.6c1,0.3,2-0.3,2.2-1.3l0,0
				C342.2,228.8,341.6,227.8,340.6,227.6z"/>
			<path class="st14" d="M337.9,221.7l-10.6-2.9c-1-0.3-2,0.3-2.2,1.3l0,0c-0.3,1,0.3,2,1.3,2.2l10.6,2.9c1,0.3,2-0.3,2.2-1.3l0,0
				C339.4,222.9,338.9,221.9,337.9,221.7z"/>
			<path class="st14" d="M341.4,218l-12.6-3.4c-1-0.3-2,0.3-2.2,1.3l0,0c-0.3,1,0.3,2,1.3,2.2l12.6,3.4c1,0.3,2-0.3,2.2-1.3l0,0
				C342.9,219.3,342.3,218.3,341.4,218z"/>
			<path class="st14" d="M349.8,222.2l-9-9.4c-0.7-0.7-1.9-0.7-2.6-0.1l0,0c-0.7,0.7-0.7,1.9-0.1,2.6l9,9.4c0.7,0.7,1.9,0.7,2.6,0.1
				l0,0C350.5,224.1,350.5,223,349.8,222.2z"/>
		</g>
		<path class="st14" d="M367.2,234.7c-11.5,0-21.4-2.1-22-2.2c-3.7-0.8-6.1-4.5-5.3-8.2c0.8-3.7,4.5-6.1,8.2-5.3
			c0.2,0,17.7,3.8,31.3,0.8c17.3-3.8,30.2-17.1,30.3-17.3c2.6-2.7,7-2.8,9.7-0.2c2.8,2.6,2.9,7,0.2,9.7
			c-0.6,0.7-15.8,16.5-37.3,21.2C377.4,234.3,372.2,234.7,367.2,234.7z"/>
		<path class="st4" d="M407.5,225.5l-13.1-15.4l15-12.8c4.2-3.6,10.6-3.1,14.3,1.1l0,0c3.6,4.2,3.1,10.6-1.1,14.3L407.5,225.5z"/>
		<path class="st4" d="M457.9,210.9l-0.1,4l-0.2,11.9l-0.9,61.3l-13.7,1.4l-10.8,1.1l-1.3,0.1l-4,0.4h-0.5l-5.1,0.5l-20,2.1
			l7.4-32.3l-6.1-41.6l-0.4-2.9l-0.9-6.3c0-2.7,0.4-5.3,1.1-7.8c1.7-6.1,5.5-11.3,10.4-15c1-0.8,2.1-1.4,3.2-2l0,0
			c4-2.2,8.6-3.4,13.4-3.4c5.4,0,10.5,1.5,14.8,4.2l0,0c1.9,1.1,3.6,2.5,5.2,4.1C454.7,196,457.9,203.1,457.9,210.9z"/>
		<path class="st4" d="M422.6,308.3h-46.3V292c0-10.2,8.3-18.5,18.5-18.5h62.3v0.3C457.1,292.9,441.7,308.3,422.6,308.3z"/>
		<path class="st23" d="M404.3,290v2.3c0,1.7-0.3,3.4-0.8,5c0,0,0,0,0,0.1c-2.1,6.8-8.6,11.8-16.1,11.8h-6.6
			c-9.3,0-16.9-7.6-16.9-16.9V290c0-9.3,7.6-16.9,16.9-16.9h6.6c3.6,0,7,1.2,9.8,3.2c0,0,0.1,0,0.1,0.1
			C401.6,279.5,404.3,284.4,404.3,290z"/>
		<path class="st11" d="M389.9,290v2.3c0,1.7-0.3,3.4-0.8,5c0,0,0,0,0,0.1h-15.8l1.7-21h15C394.3,279.5,389.9,284.4,389.9,290z"/>
		<g>
			<path class="st11" d="M356.3,352L356.3,352c4.1,1.2,8.3-1.2,9.5-5.3l16.9-60.7c1.1-4-1.2-8.2-5.3-9.4h-0.1
				c-4-1.1-8.2,1.2-9.4,5.3L351,342.7C349.9,346.7,352.3,350.9,356.3,352z"/>
		</g>
		<g>
			<rect x="363.5" y="351.2" class="st6" width="5" height="9.6"/>
			<g>
				<path class="st6" d="M350.6,340.6h17.8v11.3l-5.9,5.9c-4.6,4.7-10.9,7.3-17.5,7.3l0,0c-2.7,0-4.9-2.2-4.9-4.9l0,0
					c0-2.7,2.2-4.9,4.9-4.9h0.4L350.6,340.6z"/>
				<path class="st24" d="M350.5,338.6h17.9v11.3l-5.9,5.9c-4.7,4.7-11,7.3-17.6,7.3l0,0c-2.7,0-4.9-2.2-4.9-4.9l0,0
					c0-2.7,2.2-4.9,4.9-4.9h0.4L350.5,338.6z"/>
			</g>
			<path class="st6" d="M345.2,351.5c-0.3,0-0.5-0.2-0.5-0.5s0.2-0.5,0.4-0.6l4.6-0.6l-4.4-4.2c-0.1-0.1-0.2-0.4-0.1-0.6
				s0.3-0.3,0.5-0.3l5.9-0.1c-4.6-3.2-4.5-3.4-4.4-3.8c0.1-0.2,0.3-0.4,0.5-0.4c0.4,0,4.9-0.4,7.8-0.7c0.3,0,0.5,0.2,0.6,0.5
				c0,0.3-0.2,0.5-0.5,0.6c-0.6,0.1-4.6,0.4-6.7,0.6c1,0.8,2.9,2.1,4.6,3.3c0.2,0.1,0.3,0.4,0.2,0.6c-0.1,0.2-0.3,0.4-0.5,0.4
				l-6.3,0.1l4.2,4.1c0.1,0.1,0.2,0.3,0.1,0.5s-0.2,0.3-0.4,0.3L345.2,351.5L345.2,351.5z"/>
		</g>
		<g>
			<path class="st14" d="M370.7,352L370.7,352c4.1,1.2,8.3-1.2,9.5-5.3l16.9-60.7c1.1-4-1.2-8.2-5.3-9.4h-0.1
				c-4-1.1-8.2,1.2-9.4,5.3l-16.9,60.7C364.3,346.7,366.6,350.9,370.7,352z"/>
		</g>
		<g>
			<rect x="377.8" y="351.2" class="st6" width="5" height="9.6"/>
			<g>
				<path class="st6" d="M364.9,340.6h17.8v11.3l-5.9,5.9c-4.6,4.7-10.9,7.3-17.5,7.3l0,0c-2.7,0-4.9-2.2-4.9-4.9l0,0
					c0-2.7,2.2-4.9,4.9-4.9h0.4L364.9,340.6z"/>
				<path class="st25" d="M364.8,338.6h17.9v11.3l-5.9,5.9c-4.7,4.7-11,7.3-17.6,7.3l0,0c-2.7,0-4.9-2.2-4.9-4.9l0,0
					c0-2.7,2.2-4.9,4.9-4.9h0.4L364.8,338.6z"/>
			</g>
			<path class="st6" d="M359.5,351.5c-0.3,0-0.5-0.2-0.5-0.5s0.2-0.5,0.4-0.6l4.6-0.6l-4.4-4.2c-0.1-0.1-0.2-0.4-0.1-0.6
				s0.3-0.3,0.5-0.3l5.9-0.1c-4.6-3.2-4.5-3.4-4.4-3.8c0.1-0.2,0.3-0.4,0.5-0.4c0.4,0,4.9-0.4,7.8-0.7c0.3,0,0.5,0.2,0.6,0.5
				c0,0.3-0.2,0.5-0.5,0.6c-0.6,0.1-4.6,0.4-6.7,0.6c1,0.8,2.9,2.1,4.6,3.3c0.2,0.1,0.3,0.4,0.2,0.6c-0.1,0.2-0.3,0.4-0.5,0.4
				l-6.3,0.1l4.2,4.1c0.1,0.1,0.2,0.3,0.1,0.5s-0.2,0.3-0.4,0.3L359.5,351.5C359.6,351.5,359.5,351.5,359.5,351.5z"/>
		</g>
		<g>
			
				<rect x="333" y="209.2" transform="matrix(0.9331 -0.3597 0.3597 0.9331 -56.6967 135.1745)" class="st26" width="3.8" height="21.5"/>
			<polygon class="st3" points="332.7,209.3 329.3,210.6 329.6,208.3 329.9,207 330.9,207.8 			"/>
			<polygon class="st27" points="330.9,207.8 329.6,208.3 329.9,207 			"/>
		</g>
		<path class="st8" d="M430.7,206.1l-4.6-10.3l-7.7,9.7c0,0-2.6-5.6-4.2-11c-0.7-2.5-1.3-5-1.2-6.9l3.2-2l0,0
			c4-2.2,8.6-3.4,13.4-3.4c5.4,0,10.5,1.5,14.8,4.2l0,0c0,0.1,0.1,0.1,0.1,0.2C449.2,195.6,430.7,206.1,430.7,206.1z"/>
		<circle class="st28" cx="453.6" cy="110.4" r="14.9"/>
		<path class="st25" d="M462.5,132.5c0,18.5-15,33.5-33.5,33.5s-34.4-15-34.4-33.5S410.6,99,429,99C447.5,99,462.5,114,462.5,132.5z
			"/>
		<g>
			<path class="st11" d="M421.2,169.3l0.3,18.4c0.1,3.6,2.7,6.5,6,6.4l0,0c3.3,0,6-3.1,6-6.9l-0.3-17.4L421.2,169.3z"/>
		</g>
		<path class="st9" d="M439.6,142.5c0,0.7,0.1,1.4,0.4,2.1c0.3,0.8,0.7,1.6,1.3,2.3c1.1,1.1,2.5,1.9,4.2,1.9l6.3,0.1l0.2-12.1
			l-6.3-0.1c-2.5,0-4.8,1.5-5.7,3.7C439.7,141,439.6,141.7,439.6,142.5z"/>
		<path class="st14" d="M424.9,178.7h-1.5c-14.7,0-26.7-12-26.7-26.7v-14.4c0-14.7,12-26.7,26.7-26.7h1.5c14.7,0,26.7,12,26.7,26.7
			V152C451.6,166.6,439.6,178.7,424.9,178.7z"/>
		<path class="st8" d="M408.5,156.2c-0.1,3.7,3.3,6.5,7.4,6.6c4.2,0.1,7.6-2.7,7.7-6.3L408.5,156.2z"/>
		<g>
			<path class="st17" d="M426.5,145.4L426.5,145.4c1.3,0,2.3-1,2.4-2.2l0.1-3c0-1.3-1-2.3-2.2-2.3l0,0c-1.3,0-2.3,1-2.3,2.2l-0.1,3
				C424.2,144.3,425.2,145.4,426.5,145.4z"/>
		</g>
		<g>
			<path class="st17" d="M405.2,145.4L405.2,145.4c1.1,0,2-0.8,2-1.9l0.1-3.7c0-1.1-0.8-1.9-1.9-2l0,0c-1.1,0-1.9,0.8-2,1.9
				l-0.1,3.7C403.3,144.5,404.2,145.4,405.2,145.4z"/>
		</g>
		<path class="st16" d="M414.7,152.5L414.7,152.5c1.4-0.1,2.6-0.7,2.6-2.3l-5.1-0.1C412.2,151.7,413.3,152.5,414.7,152.5z"/>
		<path class="st25" d="M441.8,108.4l-0.6,32.7c-0.1,6.7,4.6,12.3,10.6,12.4h-0.1l5.6-19.9c0.1-5.9-8.7-24-13.8-24.9
			C442.9,108.4,443.3,108.4,441.8,108.4z"/>
		<path class="st14" d="M448.9,154.3h2.2c0.2,0,0.3,0,0.5,0c3.6-0.2,6.5-3.3,6.6-6.9c0-1.9-0.7-3.5-1.9-4.7
			c-1.1-1.1-2.6-1.8-4.3-1.9c-0.2,0-0.4,0-0.6,0h-2.2L448.9,154.3z"/>
		
			<image style="overflow:visible;enable-background:new    ;" width="9" height="12" xlink:href="2CB7EAE.png"  transform="matrix(1 0 0 1 448 140)">
		</image>
		<path class="st25" d="M418.9,121.3c-0.5,0.8-29.2,16.9-29.2,16.9s-0.3-9.7,4.9-20s17.4-14.1,26.1-14.4s17.4,9,17.4,9L418.9,121.3z
			"/>
		<path class="st25" d="M415.3,118.3c0,0,11.8,18.7,27.7,19.7c15.9,1,0.5-27.4,0.5-27.4l-9.5-0.3L415.3,118.3z"/>
		<ellipse class="st29" cx="431" cy="152" rx="7.1" ry="3.5"/>
		<path class="st29" d="M407.5,152c0,1.9-3.2,3.5-7.1,3.5c-1.4,0-2.7-0.2-3.8-0.5c-0.2-1.3-0.2-2.5-0.2-3.8v-2
			c1.1-0.4,2.5-0.6,3.9-0.6C404.4,148.5,407.5,150.1,407.5,152z"/>
		<ellipse class="st8" cx="424" cy="211.5" rx="1" ry="2.2"/>
		<ellipse class="st8" cx="424" cy="222.9" rx="1" ry="2.2"/>
		<ellipse class="st8" cx="424" cy="234.3" rx="1" ry="2.2"/>
		<ellipse class="st8" cx="424" cy="245.6" rx="1" ry="2.2"/>
		<rect x="407.6" y="259.6" class="st8" width="49.5" height="4.9"/>
		<g>
			<path class="st14" d="M430.4,286.6l-2.1,2.4c-2.4,2.8-2,7,0.8,9.4l0.1,0.1c2.8,2.4,7,2,9.4-0.8l2.1-2.4c2.4-2.8,2-7-0.8-9.4
				l-0.1-0.1C437,283.4,432.8,283.8,430.4,286.6z"/>
			<path class="st14" d="M436.2,294.9l-8.8,10.5c-0.6,0.8-0.5,1.9,0.2,2.6l0,0c0.8,0.6,1.9,0.5,2.6-0.2l8.8-10.5
				c0.6-0.8,0.5-1.9-0.2-2.6l0,0C438,294.1,436.8,294.2,436.2,294.9z"/>
			<path class="st14" d="M429.7,294.9l-7.1,8.4c-0.6,0.8-0.5,1.9,0.2,2.6l0,0c0.8,0.6,1.9,0.5,2.6-0.2l7.1-8.4
				c0.6-0.8,0.5-1.9-0.2-2.6l0,0C431.5,294.1,430.3,294.2,429.7,294.9z"/>
			<path class="st14" d="M427.8,290.3l-8.4,10c-0.6,0.8-0.5,1.9,0.2,2.6l0,0c0.8,0.6,1.9,0.5,2.6-0.2l8.4-10
				c0.6-0.8,0.5-1.9-0.2-2.6l0,0C429.6,289.4,428.5,289.5,427.8,290.3z"/>
			<path class="st14" d="M435,285.9l-12.3,4.3c-0.9,0.3-1.5,1.4-1.1,2.3l0,0c0.3,0.9,1.4,1.5,2.3,1.1l12.3-4.3
				c0.9-0.3,1.5-1.4,1.1-2.3l0,0C437,286.1,435.9,285.6,435,285.9z"/>
		</g>
		<path class="st14" d="M437.1,295.6c-1.4,0-2.9-0.5-4.1-1.4c-3-2.3-3.6-6.6-1.4-9.7c0.1-0.1,11.3-15.4,12.9-35.2
			c1.4-18.6-3.6-35.5-3.6-35.7c-1.1-3.6,1-7.5,4.6-8.6s7.5,1,8.6,4.6c0.2,0.8,5.8,19.6,4.2,40.7c-1.8,24-15,41.7-15.6,42.4
			C441.2,294.6,439.2,295.6,437.1,295.6z"/>
		<path class="st4" d="M460.9,225.9l-19.5,5.5l-5.4-19c-1.5-5.4,1.6-11,7-12.5l0,0c5.4-1.5,11,1.6,12.5,7L460.9,225.9z"/>
	</g>
	<text transform="matrix(1 0 0 1 30.0068 89.333)" class="st8 st30 st31">ВОСПИТАТЕЛЯМ</text>
</g>
</svg>
