<svg xmlns="http://www.w3.org/2000/svg" viewBox="0 0 1920 1080"><defs><style>.cls-1{fill:#c9c9c9;}.cls-2{fill:none;stroke:#727272;stroke-miterlimit:10;stroke-width:5px;}</style></defs><title>img-sm</title><g id="Слой_1" data-name="Слой 1"><rect class="cls-1" x="1225.44" y="355.72" width="320" height="280"/></g><g id="Слой_2" data-name="Слой 2"><circle class="cls-2" cx="1521.96" cy="486.95" r="15.03"/><circle class="cls-2" cx="1503.63" cy="421.03" r="8.56"/><circle class="cls-2" cx="1276.59" cy="563.86" r="11.95"/><circle class="cls-2" cx="1244.21" cy="443.32" r="3.24"/><rect class="cls-2" x="1258.95" y="483.95" width="19.97" height="21.47" transform="translate(167.28 1295.47) rotate(-57.31)"/><polygon class="cls-2" points="1431.34 404.28 1451.17 397.31 1457.77 416.9 1437.93 423.87 1431.34 404.28"/><polygon class="cls-2" points="1510.49 526.36 1522.01 522.32 1525.84 533.7 1514.32 537.75 1510.49 526.36"/><polygon class="cls-2" points="1334.53 575.43 1338.88 561.8 1329.25 551.23 1315.28 554.28 1310.93 567.9 1320.56 578.48 1334.53 575.43"/><polygon class="cls-2" points="1477.3 496.81 1483.02 478.89 1470.36 464.97 1451.97 468.99 1446.26 486.91 1458.92 500.82 1477.3 496.81"/><circle class="cls-2" cx="1299.74" cy="448.25" r="16.81"/></g></svg>