<svg xmlns="http://www.w3.org/2000/svg" xmlns:xlink="http://www.w3.org/1999/xlink" viewBox="0 0 30.27 8.75"><defs><style>.cls-1{fill:url(#Безымянный_градиент_71);}.cls-2{fill:#112120;}</style><linearGradient id="Безымянный_градиент_71" x1="3.24" y1="3.8" x2="11.51" y2="3.8" gradientUnits="userSpaceOnUse"><stop offset="0" stop-color="#2de14a"/><stop offset="0.18" stop-color="#2de378"/><stop offset="0.26" stop-color="#2ce485"/><stop offset="0.34" stop-color="#2ce58c"/><stop offset="0.45" stop-color="#2dd1b1"/><stop offset="0.54" stop-color="#2dc3cb"/><stop offset="0.6" stop-color="#2dbed5"/><stop offset="0.85" stop-color="#009aff"/><stop offset="0.88" stop-color="#0092ff"/><stop offset="1" stop-color="#0079ff"/></linearGradient></defs><title>logo</title><g id="Слой_3" data-name="Слой 3"><path class="cls-1" d="M6.69,1.22l4.81.41L9.92,3.38c-.16.88-.28,1.76-.36,2.65v0a4.87,4.87,0,0,1-1.71,1.1A1.94,1.94,0,0,1,7,7.28l.06,0A5.8,5.8,0,0,1,4.56,5,17.43,17.43,0,0,1,3.24,1.82h0a11,11,0,0,0,1.9-.37A3.67,3.67,0,0,0,7.18.3l.12,0c.19.16.14.09.28.28a2.14,2.14,0,0,0,.83.59A4.47,4.47,0,0,0,11,1.51a1.1,1.1,0,0,1,.51.05l0-.05a2.94,2.94,0,0,1-.3.55C10.34,3.46,8.59,4.19,7,4.74L6.4,6.63" transform="translate(-3.15 -0.2)"/><path class="cls-2" d="M7.17.3C7,2.64,6.93,5,7,7.32c0,0,.18,0,.18,0,0-2.35.05-4.69.21-7,0,0-.17,0-.18,0Z" transform="translate(-3.15 -0.2)"/><path class="cls-2" d="M7.16.26C6.28,1.33,4.6,1.62,3.31,1.79c-.05,0-.19.09-.08.07,1.39-.19,3.15-.48,4.1-1.63,0,0-.14,0-.17,0Z" transform="translate(-3.15 -0.2)"/><path class="cls-2" d="M7.19.27A4.35,4.35,0,0,0,8.9,1.42a4.44,4.44,0,0,0,1,.18,12.54,12.54,0,0,1,1.5,0s.19-.06.14-.07c-.79-.16-1.58.09-2.4-.12A4.14,4.14,0,0,1,7.36.21s-.19,0-.17.06Z" transform="translate(-3.15 -0.2)"/><path class="cls-2" d="M3.15,1.84c.77,2.29,1.58,4.34,3.79,5.54,0,0,.19,0,.17-.06-2.2-1.19-3-3.26-3.78-5.52,0-.05-.19,0-.18,0Z" transform="translate(-3.15 -0.2)"/><path class="cls-2" d="M6.94,7.37A3.93,3.93,0,0,0,9.63,6.12C9.72,6.05,9.58,6,9.52,6A3.78,3.78,0,0,1,7,7.24c-.09,0-.18.12-.06.13Z" transform="translate(-3.15 -0.2)"/><path class="cls-2" d="M11.42,1.55c-.7,1.72-2.69,2.58-4.32,3.14-.11,0,0,.08.07.06,1.66-.58,3.71-1.46,4.43-3.22,0-.05-.16,0-.18,0Z" transform="translate(-3.15 -0.2)"/><path class="cls-2" d="M9.85,3.43c-.15.88-.29,1.75-.38,2.64,0,.09.17.07.18,0,.09-.89.22-1.77.38-2.64,0-.09-.16-.07-.18,0Z" transform="translate(-3.15 -0.2)"/><path class="cls-2" d="M8,2.22c.62.49,1.32.82,1.4,1.72A5.75,5.75,0,0,1,9.18,5.3C9,6.51,8.76,7.72,8.51,8.92c0,.05.11,0,.12,0a25.86,25.86,0,0,0,.87-5c0-.89-.78-1.26-1.42-1.77,0,0-.14,0-.09.06Z" transform="translate(-3.15 -0.2)"/><path class="cls-2" d="M4,2.34A7.37,7.37,0,0,0,6.75,1.25s-.09,0-.11,0a7,7,0,0,1-2.58,1s-.1.06,0,0Z" transform="translate(-3.15 -0.2)"/><path class="cls-2" d="M3.93,2.32A15.21,15.21,0,0,0,6.58,6.69s.13,0,.11,0A14.92,14.92,0,0,1,4.05,2.29s-.13,0-.12,0Z" transform="translate(-3.15 -0.2)"/><path class="cls-2" d="M6.64,1.27c.14,1.81-.2,3.62,0,5.44,0,0,.12,0,.12,0-.15-1.82.19-3.63,0-5.44,0,0-.12,0-.11,0Z" transform="translate(-3.15 -0.2)"/></g><g id="Слой_2" data-name="Слой 2"><path d="M13.62,2.26l.06,0c.05,0,.08,0,.09.05a.3.3,0,0,1,.07.08l.05.11a.61.61,0,0,1,0,.15.54.54,0,0,1-.12.34.89.89,0,0,1-.3.24.71.71,0,0,1-.31.09.64.64,0,0,1-.35-.1A.32.32,0,0,1,12.66,3a.06.06,0,0,1,0-.06.05.05,0,0,1,.05,0s.08,0,.12.11a.47.47,0,0,0,.15.13.37.37,0,0,0,.16.05A.48.48,0,0,0,13.56,3a.54.54,0,0,0,.16-.3.33.33,0,0,0-.08-.22.29.29,0,0,0-.21-.09.27.27,0,0,0-.16,0,.37.37,0,0,1-.15.05l-.08,0a.05.05,0,0,1,0-.06,0,0,0,0,1,0,0l0,0,.08,0,.31-.13A.74.74,0,0,0,13.6,2a.43.43,0,0,0,.08-.21.11.11,0,0,0-.12-.12.57.57,0,0,0-.18,0,.59.59,0,0,0-.16.07l-.1.06s0,0-.06.09a.29.29,0,0,1-.12.1l-.1,0c-.05,0-.07,0-.07-.06a.29.29,0,0,1,.11-.19,1,1,0,0,1,.31-.21.94.94,0,0,1,.43-.1.21.21,0,0,1,.18.1.34.34,0,0,1,.07.22A.89.89,0,0,1,13.62,2.26Z" transform="translate(-3.15 -0.2)"/><path d="M15.77,1.6c0,.06,0,.18,0,.38a7.14,7.14,0,0,0-.14,1.18.11.11,0,0,1-.05.09.21.21,0,0,1-.09,0,.09.09,0,0,1-.07,0,.07.07,0,0,1,0-.06h0s0-.07,0-.15a4.21,4.21,0,0,0,.06-.44h0a.05.05,0,0,0-.06-.06l-.2,0-.21,0h-.23l-.21,0a.58.58,0,0,0,0,.21,2.85,2.85,0,0,1,0,.39s0,.08-.09.08l-.07,0a.14.14,0,0,1,0-.09h0a.44.44,0,0,1,0-.1,1.85,1.85,0,0,0,0-.25c0-.11.05-.42.11-.92l0-.17a.13.13,0,0,1,0-.1l0,0h0c.07,0,.11,0,.12.1v0a2,2,0,0,1-.05.33,2.12,2.12,0,0,0-.05.32h0s0,0,.12,0l.48,0c.2,0,.31-.05.32-.08s0-.12,0-.26a3.19,3.19,0,0,0,0-.45s0,0,.05-.05l.08,0a.12.12,0,0,1,.08,0,.06.06,0,0,1,0,.06Z" transform="translate(-3.15 -0.2)"/><path d="M17,1.67l0,.05a1.86,1.86,0,0,0,.08.23l.1.27a5.5,5.5,0,0,0,.23.56.93.93,0,0,0,.16.23.76.76,0,0,1,.13.13.13.13,0,0,1,0,.08.17.17,0,0,1,0,.1.13.13,0,0,1-.07,0c-.06,0-.13-.06-.2-.16a1.94,1.94,0,0,1-.2-.33,1,1,0,0,0-.13-.23l-.23,0-.34.07-.15,0h-.08s-.08.08-.16.24-.15.23-.2.23l-.08,0s-.05-.05-.05-.08A.83.83,0,0,1,16,2.9l.31-.44L16.54,2c.18-.35.3-.52.37-.52l.08,0,0,0V1.6A.15.15,0,0,1,17,1.67Zm.08.79s-.05-.13-.13-.35a2.19,2.19,0,0,0-.11-.29l-.21.39-.2.36.12,0,.15,0Z" transform="translate(-3.15 -0.2)"/><path d="M17.73,1.89a.08.08,0,0,1,0,0,.08.08,0,0,1,0-.07.67.67,0,0,1,.21,0h.4l.53-.07.27,0h.12l.08,0s0,0,0,0,0,0,0,.06,0,.07-.06.07h-.27l-.27,0c-.11,0-.17,0-.18,0a3.9,3.9,0,0,0-.06.43c0,.26,0,.46,0,.58a.88.88,0,0,0,0,.21v0a.11.11,0,0,1,0,.08.07.07,0,0,1-.06,0,.14.14,0,0,1-.1,0,.65.65,0,0,1,0-.31A9.24,9.24,0,0,1,18.43,2v0s0,0,0,0h-.25a1.66,1.66,0,0,1-.27,0C17.8,1.93,17.75,1.92,17.73,1.89Z" transform="translate(-3.15 -0.2)"/><path d="M20,3.31h-.2a.38.38,0,0,1-.3-.2.61.61,0,0,1-.14-.36,1.34,1.34,0,0,1,.13-.54,1.24,1.24,0,0,1,.35-.45.63.63,0,0,1,.41-.18h.28a.46.46,0,0,1,.21,0,.53.53,0,0,1,.19.15.51.51,0,0,1,.15.23.75.75,0,0,1,.05.26.85.85,0,0,1-.19.44,1.75,1.75,0,0,1-.46.44A.84.84,0,0,1,20,3.31Zm.5-1.59h-.09l-.11,0a.77.77,0,0,0-.26.11.94.94,0,0,0-.33.37,1,1,0,0,0-.17.52.39.39,0,0,0,.1.28.36.36,0,0,0,.25.11A.87.87,0,0,0,20.3,3a2,2,0,0,0,.41-.35.67.67,0,0,0,.17-.3V2.3a.51.51,0,0,0-.14-.45A.42.42,0,0,0,20.47,1.72Z" transform="translate(-3.15 -0.2)"/><path d="M21.77,2.67v.06a1.5,1.5,0,0,1,0,.24c0,.11,0,.18,0,.21s0,0-.05.08a.18.18,0,0,1-.1,0s0,0,0-.12a1.16,1.16,0,0,1,0-.17c0-.19,0-.45,0-.79s0-.49,0-.5V1.67c0-.13,0-.2.13-.2a.1.1,0,0,1,.07,0,.12.12,0,0,1,0,.08q0,.27,0,.57a1.79,1.79,0,0,0,0,.21v0a2.91,2.91,0,0,0,.39-.32,2.56,2.56,0,0,1,.36-.33l.05,0c.08-.09.14-.13.18-.13l.08,0s.05,0,.05.06h0a2.63,2.63,0,0,1-.37.34c-.18.15-.33.29-.47.43l.49.19h0l.08,0,.1,0a1.57,1.57,0,0,0,.28.1l.16.05,0,0h0a.1.1,0,0,1,.08.05s0,.06,0,.08a.1.1,0,0,1,0,.09.11.11,0,0,1-.08,0A.87.87,0,0,1,23,3l-.32-.12-.39-.16-.35-.11A.17.17,0,0,0,21.77,2.67Z" transform="translate(-3.15 -0.2)"/><path d="M25,2.06s-.08,0-.16.14a6.33,6.33,0,0,1-.44.46l-.31.27L24,3.05l-.07.11a.41.41,0,0,1-.05.09.16.16,0,0,1-.11,0s-.08,0-.08-.11,0-.14.05-.34,0-.36.08-.76l0-.32a.56.56,0,0,1,.05-.18s.06-.06.08-.06a.08.08,0,0,1,.08,0,.11.11,0,0,1,0,.09s0,.07,0,.18S24,2,24,2.21c0,0,0,.06,0,.17s0,.16,0,.18,0,.06,0,.13a1,1,0,0,0,0,.14v0a4.28,4.28,0,0,0,.38-.34l.11-.11a3.09,3.09,0,0,0,.31-.3A.92.92,0,0,1,24.8,2L25,1.76c.06-.1.12-.14.17-.14a.09.09,0,0,1,.07,0,.14.14,0,0,1,0,.07s0,.09,0,.25a8.08,8.08,0,0,0-.09,1,.25.25,0,0,0,0,.13l0,.07a.17.17,0,0,1-.06.11.15.15,0,0,1-.08.05c-.08,0-.12-.11-.12-.34A7.21,7.21,0,0,1,25,2.19Z" transform="translate(-3.15 -0.2)"/><path d="M13,6h0l0,0a.25.25,0,0,1-.11,0l-.08,0s0,0,0-.06a.45.45,0,0,1,0-.08.23.23,0,0,0,0-.09h0V5.66c0-.06,0-.17,0-.32s0-.29.06-.39,0-.21.05-.31a.77.77,0,0,1,0-.27c0-.08.06-.12.1-.12h0a1,1,0,0,0,.27,0h.35l.06,0h.13a.05.05,0,0,1,0,.05c0,.06,0,.11-.13.14a.87.87,0,0,1-.28,0h-.36s0,0-.06.14a.68.68,0,0,0,0,.2l0,.13s0,0,0,0h0l.09,0,.08,0,.18,0,.16,0a.55.55,0,0,1,.34.1.39.39,0,0,1,.12.31.49.49,0,0,1-.19.39,1.89,1.89,0,0,1-.7.29Zm0-.2h.12a1.19,1.19,0,0,0,.4-.12.78.78,0,0,0,.28-.19.25.25,0,0,0,.07-.14.33.33,0,0,0-.07-.21.26.26,0,0,0-.19-.08,1.71,1.71,0,0,0-.36,0,.36.36,0,0,0-.18.09s-.05.08-.07.17a2.64,2.64,0,0,0,0,.29v0A.22.22,0,0,0,13,5.8Z" transform="translate(-3.15 -0.2)"/><path d="M15.7,4.47a.09.09,0,0,1,0,.06.13.13,0,0,1-.08,0h-.46l-.09,0-.17,0a.08.08,0,0,0,0,.07s0,.1,0,.17a1.35,1.35,0,0,0-.06.27,1.22,1.22,0,0,0,.34-.06.81.81,0,0,1,.25,0l.07,0a.12.12,0,0,1,0,.09.09.09,0,0,1-.07.09h-.13a2.73,2.73,0,0,0-.37.07c-.1,0-.16,0-.16.07s0,.07,0,.17,0,.16,0,.2a.05.05,0,0,0,.06.06l.13,0,.31-.06.37-.06.1,0s.05,0,.05.09a.09.09,0,0,1,0,.07l-.13,0h-.25A1.52,1.52,0,0,0,14.8,6a.48.48,0,0,1-.18,0l0,0h-.1c-.05,0-.07,0-.07-.15a1.26,1.26,0,0,1,0-.21l.1-.55s0-.07,0-.12a2.16,2.16,0,0,0,.07-.4.07.07,0,0,0,0-.06s0-.06,0-.08,0,0,0,0,0,0,.05,0h0s0,0,.08,0a6.27,6.27,0,0,0,.65,0l.13,0a.24.24,0,0,1,.15,0,.1.1,0,0,1,0,.08Z" transform="translate(-3.15 -0.2)"/><path d="M16.89,5,17,5l.09,0,.06.08a.34.34,0,0,1,.06.12.58.58,0,0,1,0,.15.52.52,0,0,1-.12.33.81.81,0,0,1-.3.25.71.71,0,0,1-.3.09A.66.66,0,0,1,16.11,6a.3.3,0,0,1-.18-.27.09.09,0,0,1,0-.07l.06,0s.08,0,.12.1a.38.38,0,0,0,.14.14.41.41,0,0,0,.17,0,.52.52,0,0,0,.39-.19A.55.55,0,0,0,17,5.4a.35.35,0,0,0-.08-.22.29.29,0,0,0-.21-.09.41.41,0,0,0-.17,0,.3.3,0,0,1-.14.05l-.08,0s-.05,0-.05-.06,0,0,0,0,0,0,0,0l.08,0a1.42,1.42,0,0,0,.31-.13.53.53,0,0,0,.16-.17A.37.37,0,0,0,17,4.5c0-.09,0-.13-.12-.13a.57.57,0,0,0-.18,0l-.17.07-.09.06a.25.25,0,0,0-.07.09.18.18,0,0,1-.11.1l-.1,0c-.05,0-.08,0-.08-.06s0-.1.11-.18a1,1,0,0,1,.32-.22,1.07,1.07,0,0,1,.43-.09.2.2,0,0,1,.17.09.38.38,0,0,1,.08.23A.91.91,0,0,1,16.89,5Z" transform="translate(-3.15 -0.2)"/><path d="M18.1,6h-.2a.38.38,0,0,1-.31-.19.64.64,0,0,1-.13-.37,1.25,1.25,0,0,1,.13-.54,1.41,1.41,0,0,1,.34-.45.63.63,0,0,1,.41-.17l.11,0h.17a.48.48,0,0,1,.22,0,.77.77,0,0,1,.19.14.7.7,0,0,1,.15.23.78.78,0,0,1,0,.26.87.87,0,0,1-.18.45,1.92,1.92,0,0,1-.46.44A.9.9,0,0,1,18.1,6Zm.5-1.59h0l-.08,0H18.4a1.27,1.27,0,0,0-.27.11,1.11,1.11,0,0,0-.32.37,1,1,0,0,0-.17.53.4.4,0,0,0,.1.28.36.36,0,0,0,.25.11.8.8,0,0,0,.44-.15,1.53,1.53,0,0,0,.41-.35A.6.6,0,0,0,19,5.06V5a.51.51,0,0,0-.14-.44A.44.44,0,0,0,18.6,4.42Z" transform="translate(-3.15 -0.2)"/><path d="M20.67,6s-.06,0-.09-.06a.45.45,0,0,1,0-.21c0-.18.05-.57.13-1.16,0,0,0,0,0,0h-.28a1.18,1.18,0,0,0-.4,0,.84.84,0,0,0-.08.37q0,.13-.06.42a2.7,2.7,0,0,0-.07.5V5.9c0,.07,0,.1-.1.1s-.11,0-.11-.14a1.12,1.12,0,0,1,0-.2c0-.1,0-.2.05-.29s0-.12,0-.18a3.49,3.49,0,0,0,.07-.57s0-.06-.05-.06-.11,0-.11-.09a.11.11,0,0,1,0-.08.09.09,0,0,1,.07,0,.39.39,0,0,0,.15,0l.07,0,.08,0s.09,0,.21,0h.48l.06,0a.13.13,0,0,1,.08,0H21c.06,0,.09,0,.09.08a.12.12,0,0,1,0,.09.09.09,0,0,1-.07,0l0,0a.37.37,0,0,0-.06.17,4.72,4.72,0,0,0-.07.52c0,.25,0,.47,0,.67v0a.06.06,0,0,1,0,0A.09.09,0,0,1,20.67,6Z" transform="translate(-3.15 -0.2)"/><path d="M22.26,4.38l0,0a2,2,0,0,0,.07.22c0,.06.06.15.11.28a3.65,3.65,0,0,0,.23.55.93.93,0,0,0,.16.23,1.53,1.53,0,0,1,.13.13.16.16,0,0,1,0,.08A.17.17,0,0,1,23,6a.09.09,0,0,1-.08,0s-.12,0-.2-.16a2.23,2.23,0,0,1-.2-.33c-.07-.15-.11-.23-.13-.23l-.22,0-.34.08-.15,0h-.08s-.08.08-.17.24-.15.24-.2.24,0,0-.07,0a.1.1,0,0,1-.05-.07.53.53,0,0,1,.13-.22c.14-.2.24-.34.3-.44a3.87,3.87,0,0,0,.25-.45c.19-.34.31-.51.37-.51h.08s0,0,0,0,0,0,0,.06A.17.17,0,0,1,22.26,4.38Zm.07.78s0-.13-.12-.35a2.8,2.8,0,0,0-.12-.29,3.68,3.68,0,0,1-.2.39c-.11.18-.17.3-.21.37l.13,0,.15,0Z" transform="translate(-3.15 -0.2)"/><path d="M24.35,5.61s0,0,0,0,0,.09-.12.16A1.28,1.28,0,0,1,24,6a.89.89,0,0,1-.3.06.51.51,0,0,1-.35-.13.44.44,0,0,1-.16-.37,1.26,1.26,0,0,1,.38-.87,1.06,1.06,0,0,1,.74-.42.25.25,0,0,1,.21.08.24.24,0,0,1,.08.19.71.71,0,0,1,0,.16.17.17,0,0,1-.07.1l-.09,0-.05,0a.14.14,0,0,1,0-.06.89.89,0,0,1,0-.11.3.3,0,0,0,0-.12c0-.07,0-.11-.1-.11a.65.65,0,0,0-.37.18,1.36,1.36,0,0,0-.38.44.94.94,0,0,0-.16.49.35.35,0,0,0,.09.25.33.33,0,0,0,.26.1A.56.56,0,0,0,24,5.81a1.15,1.15,0,0,0,.25-.12C24.29,5.63,24.33,5.61,24.35,5.61Z" transform="translate(-3.15 -0.2)"/><path d="M26.35,4.31c0,.05,0,.18-.05.37a7.27,7.27,0,0,0-.14,1.18.16.16,0,0,1-.05.1A.16.16,0,0,1,26,6,.07.07,0,0,1,26,6a.09.09,0,0,1,0-.07h0a.69.69,0,0,1,0-.16A4.18,4.18,0,0,0,26,5.32v0s0,0-.06,0l-.21,0h-.2l-.23,0-.21,0a.76.76,0,0,0,0,.22,3.34,3.34,0,0,1,0,.39.09.09,0,0,1-.09.07s0,0-.07,0a.15.15,0,0,1-.05-.08h0a.22.22,0,0,1,0-.1,1.64,1.64,0,0,0,0-.24c0-.12.05-.42.11-.93l0-.16a.19.19,0,0,1,0-.1l0,0h0c.07,0,.11,0,.11.1v0a1.69,1.69,0,0,1,0,.32,1.37,1.37,0,0,0-.05.32h0s0,0,.12,0l.48,0c.2,0,.31,0,.32-.07s0-.12,0-.27a3.15,3.15,0,0,0,0-.44l.05,0a.1.1,0,0,1,.08,0l.08,0a.09.09,0,0,1,0,.06Z" transform="translate(-3.15 -0.2)"/><path d="M27.22,6H27a.37.37,0,0,1-.31-.19.64.64,0,0,1-.13-.37,1.25,1.25,0,0,1,.13-.54,1.41,1.41,0,0,1,.34-.45.63.63,0,0,1,.41-.17l.1,0h.18a.51.51,0,0,1,.22,0,1,1,0,0,1,.19.14.68.68,0,0,1,.14.23.8.8,0,0,1,.05.26.82.82,0,0,1-.19.45,1.92,1.92,0,0,1-.46.44A.84.84,0,0,1,27.22,6Zm.49-1.59h0l-.08,0h-.1a1.09,1.09,0,0,0-.27.11,1,1,0,0,0-.33.37,1.06,1.06,0,0,0-.17.53.41.41,0,0,0,.11.28.34.34,0,0,0,.24.11.86.86,0,0,0,.45-.15,1.48,1.48,0,0,0,.4-.35.6.6,0,0,0,.17-.29V5A.54.54,0,0,0,28,4.56.46.46,0,0,0,27.71,4.42Z" transform="translate(-3.15 -0.2)"/><path d="M29.78,5.61s0,0,0,0,0,.09-.12.16a1.35,1.35,0,0,1-.29.16.79.79,0,0,1-.29.06.55.55,0,0,1-.36-.13.47.47,0,0,1-.16-.37A1.28,1.28,0,0,1,29,4.67a1,1,0,0,1,.74-.42.25.25,0,0,1,.21.08.27.27,0,0,1,.08.19.71.71,0,0,1,0,.16.17.17,0,0,1-.07.1.26.26,0,0,1-.1,0l0,0a.14.14,0,0,1,0-.06.89.89,0,0,1,0-.11.74.74,0,0,0,0-.12c0-.07,0-.11-.1-.11a.63.63,0,0,0-.37.18A1.52,1.52,0,0,0,29,5a1,1,0,0,0-.15.49.35.35,0,0,0,.09.25.3.3,0,0,0,.25.1.57.57,0,0,0,.24-.05,1.15,1.15,0,0,0,.25-.12A.34.34,0,0,1,29.78,5.61Z" transform="translate(-3.15 -0.2)"/><path d="M30.11,4.6a.11.11,0,0,1,0-.06.06.06,0,0,1,0-.06.53.53,0,0,1,.22,0l.39,0,.54-.06a1.18,1.18,0,0,1,.26,0h.2l0,0a.11.11,0,0,1,0,0s0,.08-.05.08h-.55a.31.31,0,0,0-.18,0A3.17,3.17,0,0,0,31,5a5.52,5.52,0,0,0,0,.59.82.82,0,0,0,0,.21v0a.16.16,0,0,1,0,.09s0,0-.06,0a.12.12,0,0,1-.1-.06.75.75,0,0,1,0-.3,7.41,7.41,0,0,1,.1-.94v0s0,0,0,0l-.25,0-.27,0A.22.22,0,0,1,30.11,4.6Z" transform="translate(-3.15 -0.2)"/><path d="M33.17,4.76s-.07,0-.15.14a4.83,4.83,0,0,1-.44.46c-.16.14-.26.24-.32.28a.63.63,0,0,0-.14.12.72.72,0,0,0-.07.11A.22.22,0,0,1,32,6a.15.15,0,0,1-.12,0c-.05,0-.07,0-.07-.1a2.27,2.27,0,0,1,.05-.34c0-.12,0-.37.08-.76l0-.33A.34.34,0,0,1,32,4.29s0-.07.08-.07a.1.1,0,0,1,.08,0,.13.13,0,0,1,0,.08s0,.07,0,.18,0,.22,0,.38c0,0,0,.07,0,.17a1.29,1.29,0,0,0,0,.19.85.85,0,0,1,0,.13,1,1,0,0,0,0,.14s0,0,0,0a4.86,4.86,0,0,0,.37-.34l.12-.11a2,2,0,0,0,.3-.3L33,4.69c.09-.12.16-.19.18-.23s.13-.14.18-.14a.06.06,0,0,1,.06,0,.11.11,0,0,1,0,.07s0,.1,0,.25a8.25,8.25,0,0,0-.09,1,.29.29,0,0,0,0,.14.25.25,0,0,1,0,.07.19.19,0,0,1-.05.1s-.07.06-.09.06-.12-.11-.12-.34,0-.39.08-.78Z" transform="translate(-3.15 -0.2)"/></g></svg>