<?xml version="1.0" encoding="utf-8"?>
<!-- Generator: Adobe Illustrator 22.0.1, SVG Export Plug-In . SVG Version: 6.00 Build 0)  -->
<svg version="1.1" id="Слой_1" xmlns="http://www.w3.org/2000/svg" xmlns:xlink="http://www.w3.org/1999/xlink" x="0px" y="0px"
	 viewBox="0 0 540 396" style="enable-background:new 0 0 540 396;" xml:space="preserve">
<style type="text/css">
	.st0{fill:#53DB9D;}
	.st1{fill:#F7C852;}
	.st2{fill:#F4C5AB;}
	.st3{fill:#B96046;}
	.st4{fill:#529578;}
	.st5{fill:#FF4900;}
	.st6{fill:#F7A985;}
	.st7{fill:#EE6658;}
	.st8{fill:#E8ECEF;}
	.st9{fill:#F7F7F7;}
	.st10{fill:#FEFEFE;}
	.st11{fill:#862E45;}
	.st12{fill:#264588;}
	.st13{fill:#FFFFFF;}
	.st14{fill:#A4464D;}
	.st15{fill:#4E6BA5;}
	.st16{fill:#5A7DBC;}
	.st17{fill:#FFC373;}
	.st18{fill:#DADDE6;}
	.st19{font-family:'Verdana';}
	.st20{font-size:34px;}
</style>
<g id="эксп-родители">
	<rect x="-9.8" y="-11.5" class="st0" width="560.3" height="418.5"/>
	<g>
		<path class="st1" d="M263.9,326.9c-1.2,7.2-2.4,14.4-3.5,21.7c-0.4,2.7,0.2,3.3,2.9,3.3c3,0,5.9,0,8.9,0c1.7,0,3.3-0.6,5-0.2
			c1.4-0.3,2.8-0.2,4.2-0.1c1.7,0,3.4,0,5.1,0c2.8-0.1,5.5-0.1,8.3-0.2c3.4,0,4-1,3.5-4.3c-1.1-6.6-2-13.3-3-19.9
			c-2.8-5.7-4.6-11.8-6.5-17.8c-1.2-1-2.4-2-3.5-3.1c-1.4-1.4-1.1-2.2,0.9-3.1c-0.2-0.7-0.4-1.4-0.6-2.1c-3.1,4-9.4,4-12.5,0
			c-0.2,0.6-0.5,1.1-0.7,1.7c2.3,1.5,2.4,2.1,0.5,3.9c-1,0.9-2,1.8-2.9,2.7c-0.1,0.2-0.3,0.3-0.4,0.5l0,0c0.1,1-0.4,1.8-0.7,2.7
			C267.3,317.2,265.6,322,263.9,326.9z"/>
		<path class="st2" d="M260.5,275.3c0-10.4,8.4-18.8,18.8-18.8s18.8,8.4,18.8,18.8c0,9.4-6.8,17.1-15.8,18.6
			c-0.2,0.3-0.2,0.6-0.1,1.2c0.1,1.3-0.2,1.7,0.8,2.5c0.7,0.6,0.9,1.6,0.4,2.6c-1,2-4.8,2.8-7,1.4c-1.8-1.1-1.8-2.2,0.1-4.8
			c0.1-0.2,0.1-0.5,0.1-0.7c0-0.3,0-0.6,0-0.9c0.1-0.5,0-0.9-0.2-1.2C267.4,292.6,260.5,284.8,260.5,275.3z"/>
		<path class="st3" d="M296.4,259.3c-3.2-4.9-8-8-14-8.9c-8.2-1.2-16.3,4.1-19.9,8.1c-1.2,1.4-2.7,4.4-3.2,6.6
			c1.3,1.4,3.5-0.3,4.7,1.2c0.3-0.1,0.6-0.2,1-0.3c1.1-1.9,2.5-3.5,4.3-4.9c1.2-1,1.9-1.2,2.1,0.8c0.3,2.6,1.6,4.7,3.8,6.3
			c2.1,1.5,3.6,1.9,5.8-0.3c3.9-3.8,11.4-0.5,13.6,2.1c0.9,1.1,1.8,2.9,2.5,5.1c1.4-0.2,2,1,2.9,1.6c0.9-2.9,0.6-6.5,0.1-8.7
			C299.5,265.8,297.7,261.4,296.4,259.3z"/>
		<path class="st3" d="M299,286.9c-0.9-0.1-1.9-0.1-2.9-0.2c0.7-1.8,2.1-3.1,2.3-4.9c-0.7,0.2-1.3,0.3-2,0.5c-1.7,2.5-3.5,4.6-6,6.7
			c-2.1,1.7-4.1,3.1-6.6,4c-1,0.4-2,0.6-1.6,2c0.2,0,0.3,0,0.5,0.1c4.3-0.9,8.1-3.1,11.6-6.5c0,3.7,0,6.8,0,9.9
			c0,3.6,1.1,6.6,3.6,9.2c1.3,0.9,2.7,1.8,4,2.8c3,1.3,6.3,0.9,9.4,1c0.8,0,1.3-0.2,1.3-1.1c-0.2-5.3,1.1-12.4-0.7-16
			C310.4,291,304.3,287.6,299,286.9z"/>
		<path class="st3" d="M248.9,291.1c-2.5,2.7-3.1,6.3-3,10c0.1,2.9,0.1,5.9,0,8.9c0,1.2,0.4,1.7,1.6,1.6c3.2-0.1,6.4,0.2,9.5-1.1
			c1.1-0.7,2.2-1.1,2.9-1.5c0.4-0.3,1.6-1.3,2-1.9c1.4-2,2.8-5.7,2.6-9.5c-0.1-2,0-7.3,0-7.6c-0.5-1.2-0.4-1.6-1.1-1.9
			c-1.6-0.6-1.5,0.1-5.8-1.1C255.5,286.8,250.7,289.1,248.9,291.1z"/>
		<path class="st4" d="M266.6,369.1c-2.1-0.1-4.1,0.7-6.2,1.1c-0.6,0.1-1.4,0.3-1.4,1.2c0.1,0.8,0.9,1,1.5,1.1
			c3.4,0.9,6.9,1.5,10.4,1.5c5.6,0.1,11.3,0.1,16.9,0c3.4-0.1,6.8-0.8,10.2-1.5c0.8-0.2,1.6-0.5,1.7-1.3c0.1-1-0.9-1.1-1.6-1.2
			c-2-0.4-4-1.1-6.2-1.1c0.2,0.5,0.6,0.9,0.4,1.5c0.2,1.6-0.5,2.4-2,2.5c-3.1,0.3-6-0.3-8.9-1.2c-1.2-0.4-1.6-1.2-0.7-2.3
			c0-0.3,0-0.7,0-1c-0.9,0-1.8,0.1-2.7,0.1c0,0.2,0.1,0.5,0.1,0.7c0.4,1.7-0.4,2.4-2,2.8c-2.5,0.7-5.1,1-7.7,0.9
			c-1.7-0.1-2.7-0.8-2.4-2.7C266.3,370,266.4,369.5,266.6,369.1z"/>
		<path class="st5" d="M298.4,315.9c-3.9-2.1-6.3-3.9-9.6-6.6c1.9,6,3.7,12.1,6.5,17.8C299.9,324.4,301.5,322.2,298.4,315.9z"/>
		<path class="st5" d="M269.6,309.7c-2,1.5-4.6,3.7-6.2,4.7c-1.1,0.7-2.4-0.7-3.8,3.4c-1.8,4.5-0.1,8.2,4.3,9
			c1.7-4.8,3.4-9.7,5-14.5C269.3,311.5,269.8,310.7,269.6,309.7z"/>
		<path class="st2" d="M257,310.4c-0.8,2.5,0.6,5.4,2.1,5.9c1.2,0.4,3.8-0.9,4.9-1.7c1.6-1.1,3.6-3.5,5.7-4.9l0,0
			c0.1-0.2,0.3-0.3,0.4-0.5c1-0.9,2-1.8,2.9-2.7c1.9-1.8,1.8-2.4-0.5-3.9c-2.6,1.7-5.5,2.9-8.5,4c-0.8,0.5-2.5,1-2.5,1
			C261,308,258.1,309.7,257,310.4z"/>
		<path class="st6" d="M286.5,351.5c-1.7,0-3.4,0-5.1,0c0,5.2,0,10.4,0,15.6c1,0,2.1,0,1.9-1.5c-0.2-2.6,1.2-3.3,3.5-3.1
			C285.9,358.8,286.5,355.1,286.5,351.5z"/>
		<path class="st6" d="M277.2,351.5c-1.7-0.4-3.3,0.3-5,0.2c0,3.5-0.1,7.1-0.1,10.6c2.1-0.2,3.5,0.5,3.1,2.9c-0.2,1.6,0.7,1.8,2,1.7
			C277.2,361.8,277.2,356.7,277.2,351.5z"/>
		<path class="st7" d="M277.2,367c-1.3,0.1-2.2-0.1-2-1.7c0.3-2.5-1-3.1-3.1-2.9c-1,0.3-1.8,1-1.6,2c0.5,3.1-1.6,4-3.9,4.7
			c-0.2,0.5-0.3,0.9-0.5,1.4c4.2,1.3,8.2,0.9,12-1.1c0-0.2-0.1-0.5-0.1-0.7C277.7,368.1,277.5,367.5,277.2,367z"/>
		<path class="st7" d="M286.8,362.4c-2.3-0.2-3.8,0.5-3.5,3.1c0.1,1.5-0.9,1.5-1.9,1.5c-0.2,0.5-0.4,1-0.7,1.5c0,0.3,0,0.7,0,1
			c3.8,1.7,7.7,2.1,11.7,1c0.2-0.6-0.2-1-0.4-1.5c-2.4-0.7-4.3-1.6-3.7-4.7C288.4,363.5,287.7,362.8,286.8,362.4z"/>
		<path class="st5" d="M286.2,303.1c2.3,1,4.5,2.1,6.8,3.1c0.5,0.2,2.6,5.3,3.1,4.6c-0.4-1.3-2.4-7.2-2.9-8.4
			c-1.6-4.2-4.1-5.8-8.8-5.7c0,1.6,1,2.9,1.3,4.4C285.8,301.7,286,302.4,286.2,303.1z"/>
		<path class="st5" d="M263.9,306.7c2.9-1.1,5.8-2.3,8.5-4c0.2-0.6,0.5-1.1,0.7-1.7c0.1-1.5,1.3-2.8,1-4.4c-4.4,0.2-7.8,1.8-9,6.5
			C264.8,304.3,264.4,305.5,263.9,306.7z"/>
		<path class="st8" d="M274.1,296.6c0.3,1.6-0.9,2.9-1,4.4c3.1,4,9.4,4,12.5,0c-0.2-1.5-1.3-2.8-1.3-4.4c-0.5-0.5-1.3-0.3-2.1-0.3
			c0,0,0,0.5,0.6,1.5c0.5,0.8,1,1.3,0.6,2.2c-1,2-4.8,2.8-7,1.4c-1.8-1.1-1.8-2.2,0.1-4.8c0.1-0.2,0.1-0.5,0.1-0.7
			C275.8,296.2,275,296.4,274.1,296.6z"/>
		<path class="st7" d="M270,309.3c-0.1,0.2-0.3,0.3-0.4,0.5C269.7,309.6,269.9,309.5,270,309.3z"/>
		<path class="st2" d="M302,310.5c-1.3-0.9-2.7-1.8-4-2.8c-1.9-0.7-4.4-1.3-4.9-1.6c-2.3-1-4.5-2.1-6.8-3.1
			c-2.1,0.9-2.3,1.7-0.9,3.1c1.1,1.1,2.3,2.1,3.5,3.1c3.4,2.7,7.2,7.8,10.3,7.4C300.8,316.4,302.3,313.1,302,310.5z"/>
		<path class="st7" d="M297,275.2c0,2.4-0.1,4.7-0.6,7.1c0.7-0.2,1.4-0.2,2-0.5c1.9-0.9,2.5-3.4,1.5-5
			C299.4,275.9,298.4,275,297,275.2z"/>
		<path class="st3" d="M262,274.8c0.5-1.9,2.6-8.3,3.6-10c0.3-1.1-1-0.9-2.2-0.9c-1.1,0-3.7-0.2-4,0.7c-0.5,1.7-1.8,9.3-1,12.2
			C259.6,276,260.5,274.8,262,274.8z"/>
		<path class="st7" d="M262,274.8c-1.5,0-2.8,0.9-3.5,2c-1,1.6-0.2,3.8,1.5,5c0.9,0.6,2,0.6,3,0.5
			C262.7,279.8,262.3,277.3,262,274.8z"/>
		<path class="st3" d="M263,282.3c-1,0.1-2.1,0.1-3-0.5c0,1.1,0.7,2,1.3,2.9c1.1,1.6,1,2.4-1.1,2.1c-0.4,0-3-0.1-3.9,0.2
			c2.8,1.2,7.8,3.2,13.1,3.5C268,289.8,263.7,284.3,263,282.3z"/>
		<path class="st9" d="M292.4,370.6c-4,1.1-7.9,0.7-11.7-1c-0.9,1.1-0.4,1.9,0.7,2.3c2.9,0.9,5.9,1.5,8.9,1.2
			C291.9,372.9,292.6,372.1,292.4,370.6z"/>
		<path class="st9" d="M278.2,369.4c-3.9,2-7.9,2.4-12,1.1c-0.3,1.9,0.6,2.6,2.4,2.7c2.6,0.1,5.2-0.2,7.7-0.9
			C277.7,371.8,278.5,371,278.2,369.4z"/>
		<path class="st10" d="M280.2,286.1c0.5-0.2,0.9-0.5,1.4-0.7c0-0.1,0-0.2,0.1-0.2c0.6-1.3,2.4-2.7,1.6-4c-0.8-1.4-2.9-0.9-4.5-0.8
			c-1.3,0.1-3.2-0.4-3.8,1.2c-0.5,1.3,2.1,3.9,3.7,4.3C279.2,286,279.7,286,280.2,286.1z"/>
		<path class="st3" d="M264.9,289.5c3.3,3.2,7.2,5.2,11.7,5.7c0.3-1.5-0.7-1.8-1.8-2.1c-2.8-0.8-6-2.3-7.8-4.8
			C265.9,288.1,265.5,288.3,264.9,289.5z"/>
		<path class="st11" d="M283.8,278.1c1.2-0.3,1.5-1.1,1.5-2.1c0-1.1-0.4-1.8-1.6-1.7c-1.1,0.1-1.3,1-1.3,1.9
			C282.4,277.1,282.8,277.8,283.8,278.1z"/>
		<path class="st7" d="M287.4,282.4c0.1,1.1,0.7,1.5,1.7,1.4c0.9-0.1,1.7-0.6,1.6-1.6c-0.1-0.9-0.5-1.9-1.7-1.7
			C287.9,280.6,287.4,281.4,287.4,282.4z"/>
		<path class="st7" d="M268.2,282.6c0.1,1.1,0.7,1.5,1.7,1.4c0.9-0.1,1.7-0.6,1.6-1.6c-0.1-0.9-0.5-1.9-1.7-1.7
			C268.8,280.8,268.3,281.6,268.2,282.6z"/>
		<path class="st11" d="M274.5,278c1.2-0.3,1.5-1.1,1.5-2.1c0-1.1-0.4-1.8-1.6-1.7c-1.1,0.1-1.3,1-1.3,1.9
			C273.1,277.1,273.5,277.8,274.5,278z"/>
		<path class="st12" d="M370.6,287.4c-0.1-0.3,1.2-27,1.8-29.9c0.1-6.4,0.2-12.9,0.3-19.3c0-0.5-0.1-1-0.1-1.5
			c0.7-11.5,0.2-23,1.3-34.4c-17,0-34.1,0-51.1,0c0.3,3.1,0.5,6.2,0.6,9.3c0.2,8.9,0.4,17.8,0.7,26.6c0.1,4.6,0.1,9.1,0.2,13.7
			c0.1,1.9,1.1,25.9,1.3,28.9c0.3,5.2,0.2,10.5,1.2,15.7c0.5,2.9,1.1,5.6,1.4,8.4c1.7,15,3.2,30,4.8,45c0.2,1.6,0.3,3.2,0.5,4.8
			c1.4,0.4,2.2,1.5,2.9,2.7c3,0,6.1,0,9.1,0c-0.2-12.7-0.5-25.5-0.6-38.2c-0.1-16.5-1.4-33.1-0.3-49.6c0.8-13.6,1.7-27.1,2.7-40.7
			c0.3-3.8,0.1-7.7,1.2-12.2c0.2,1,0.2,1.3,0.3,1.7c0.8,12.1,1.7,24.2,2.5,36.4c0.3,3.7,1.1,37.1,1.1,38.4
			c-0.1,8.6-0.3,17.2-0.4,25.8c-0.2,13-0.4,26-0.6,39c0.6-0.9,1.4-1,2.3-1c2.3,0,4.6,0,6.9,0.6c0.6-1.2,1.5-2.2,2.8-2.7
			c1.3-12,2.5-23.9,3.8-35.9c0.7-6.9,1.5-13.9,2.3-20.8c0.1-1.3,0.4-2.7,0.6-4C369.8,291.8,370.4,289.6,370.6,287.4z"/>
		<path class="st13" d="M322.9,202.3c17,0,34.1,0,51.1,0c0.7-1,0.5-2.1,0.5-3.2c0-9.4,0-18.9,0.1-28.3c0-1.6,0-3.2-0.1-4.8
			c0-0.9,0.2-1.6,1.3-1.7c2.8-0.3,5.6-1.2,8.4-1.1c-0.1-4.3-1.1-8.5-1.7-12.7c-1.3-8.2-2.7-16.3-3.8-24.5c-0.6-5.1-4.3-10.4-10.1-10
			c-1,0.1-2-0.3-2.8-1c-2.5-2.2-5.4-3.7-8.4-5.1c-0.7,5.4-4.1,8.7-9.1,8.7c-4.7,0-8.1-3.4-8.8-8.6c-3.2,1.1-6.1,2.8-8.5,5.3
			c-0.6,0.7-1.4,0.9-2.3,0.8c-6.3-0.4-9.7,4.5-10.4,9.7c-1,7.1-2.3,14.1-3.3,21.1c-0.8,5.5-2.1,10.9-2.3,16.4c1.5-0.1,3,0.2,4.5,0.5
			c6,0.9,6,0.9,5.1,7.1c0,9.5,0,19,0,28.5C322.4,200.4,322.2,201.4,322.9,202.3z"/>
		<path class="st2" d="M339.5,110c0.7,5.3,4.1,8.6,8.8,8.6c4.9,0,8.3-3.2,9.1-8.7c0-1.1,0-2.2-0.1-3.3c-0.2-2.9,0.1-5.2,3.1-6.9
			c2.3-1.3,3.4-4.1,4.4-6.6c0.1-0.7,0.1-1.5,0.2-2.2c0.4-2.9,0.5-2.9,3.2-1.6c7,0.2,10.3-6.2,8.3-10.9c-1-2.5-2.9-4-5.4-4.9
			c-3.5,0-3.5,0-3.5,3.5c0,0.5,0,1,0,1.5c0.6,0,1.2,0.1,1.7,0.1c1.9,0,2.8,0.9,2.7,2.8c-0.2,1.7-1.1,2.9-2.9,2.7
			c-1.8-0.2-2.8-1.4-2.5-3.3c0.1-0.6,0.3-1.1,0.5-1.7c-4.4-1.5-5.5-3.1-5.6-7.8c0-4.2,0-8.4,0-13.1c-2.1,1.7-4.1,2.9-6.4,3
			c-5.9,0.3-11.8,1-17.5-0.6c-1.6-0.5-2.1-0.1-2.1,1.6c0.1,3.5,0.1,6.9,0,10.4c-0.1,3.8-2.4,6.2-6,6.4c0.2,0.4,0.5,0.8,0.7,1.3
			c0.7,1.7-0.1,3-1.6,3.7c-1.4,0.7-2.6-0.1-3.4-1.4c-0.9-1.5-0.1-2.7,1.2-3.6c0.9-0.6,2-0.2,2.9-0.4c0-6.1,0.4-4.9-3.5-5
			c-3.4,1.3-5.7,3.6-6,7.4c-0.2,3,1.2,5.5,3.8,7.2c1.6,1.1,3.6,0.8,5.2,1.6c0.3-1.2,1.4-1.3,2.2-1.2c0.8,0.1,0.4,1.1,0.5,1.7
			c0.2,0.9,0.2,1.8,0.3,2.7c1.2,3.7,3.3,6.8,6.8,8.8c0.9,0.5,0.8,1.2,0.8,1.9C339.5,105.8,339.5,107.9,339.5,110z M348.5,91.8
			c-3.2,0-5.6-1.7-6.5-4.6c-0.4-1.2-0.3-2,1.2-2c3.5,0,6.9,0,10.4,0c1.2,0,1.6,0.6,1.3,1.8C354.1,89.8,351.6,91.8,348.5,91.8z
			 M356.8,74.7c0,1.2,0,2.6-1.7,2.5c-1.6-0.1-1.4-1.6-1.4-2.8c0-1.1,0-2.4,1.5-2.3C357,72.1,356.8,73.5,356.8,74.7z M340,74.7
			c0-1.2-0.1-2.6,1.6-2.6c1.5,0,1.5,1.3,1.5,2.4c0,1.2,0.1,2.6-1.6,2.6S340.1,75.7,340,74.7z"/>
		<path class="st14" d="M367.5,78.5c0-0.5,0-1,0-1.5c0-3.5,0-3.5,3.5-3.5c0-5.3,0-10.6,0-15.9c0-5.2-2.3-9.1-6.7-11.7
			c-0.7-0.4-1.3-0.9-1.9-1.6c-2.1-2.9-6.3-4.1-8.7-4.3c-3.5-0.3-11.5-3.3-15.4-3.1c-4.2,0.3-13.1,2.5-14.2,8.8
			c-0.5,2.9,1.7,10.2,1.6,11.7c-0.1,5.4,0,10.8,0,16.2c3.9,0.2,3.5-1,3.5,5c0.1,0.1,0.1,0.3,0.1,0.4c3.6-0.2,5.9-2.6,6-6.4
			c0.1-3.5,0.1-6.9,0-10.4c0-1.7,0.5-2,2.1-1.6c5.8,1.7,11.7,0.9,17.5,0.6c2.3-0.1,4.2-1.4,6.4-3c0,4.7,0,8.9,0,13.1
			c0,4.7,1.1,6.2,5.6,7.8C367.2,78.9,367.4,78.7,367.5,78.5z"/>
		<path class="st2" d="M322.9,202.3c-0.6-0.9-0.5-1.9-0.5-2.9c0-9.5,0-19,0-28.5c-3.1-0.3-6.2-0.7-9.2-1.5c0.2,2.7-0.9,5.2-0.9,8
			c0.1,13.6,0,27.2,0,40.8c0,1.4-0.2,2.5-1.5,3.5c-4.5,3.4-5.6,9.7-2.7,14.2c3.1,4.7,9,6.2,14.1,3.6c0.7-0.3,1.3-0.7,2-1.1
			c-0.2-8.9-0.5-17.8-0.7-26.6C323.4,208.5,323.2,205.4,322.9,202.3z"/>
		<path class="st2" d="M374.5,170.8c0,9.4,0,18.9-0.1,28.3c0,1.1,0.2,2.2-0.5,3.2c-1.2,11.4-0.6,23-1.3,34.4c0,0.5,0.1,1,0.1,1.5
			c2.9,1.8,6,3.1,9.5,2.1c4.1-1.2,6.9-3.7,7.8-7.8c0.9-4.2,0-8.1-3.7-10.8c-1.3-1-1.7-2-1.7-3.6c0-14,0-28,0-42
			c0-2.2-0.4-4.4-1.5-6.3C380.2,170.1,377.4,170.5,374.5,170.8z"/>
		<path class="st4" d="M317.6,366.4c-3,0.3-8.2,1.5-11.8,3.1c-1,0.4-1.8,1-1.7,2.2c0.1,1.1,0.9,1.6,1.7,2c4.4,2.1,9.1,2.8,13.9,3.4
			c8.2,1.1,16.4,1.2,24.6,1.7c8.6,0.5,17.1-0.3,25.7-0.6c7.4-0.3,14.7-1.2,21.9-3c1.4-0.4,2.7-1,3.9-1.6c2.4-1.2,2.4-2.6,0-3.9
			c-2.8-1.6-6-2.3-9.1-2.8c-5.1-0.8-10.3-1.6-15.5-1.7c2.1,1.7,4.6,1.4,7,1.5c0.7,0.2,1.6,0.2,2.2,0.6c1.5,1.1,2.7,2.5,2.1,4.5
			c-0.5,1.8-2.1,1-3.2,1c-8.4,0.1-16.7-0.1-25.1,0.1c-2.6,0.1-3.6-0.7-3.1-3.2c-0.7-1.6-0.1-3.3-0.4-4.9c-1.6,0-3.2,0-4.8,0
			C345.7,366.1,324.7,365.7,317.6,366.4z"/>
		<path class="st7" d="M350.8,364.5c0.3,1.6-0.3,3.3,0.4,4.9c8.2,0,16.3-0.1,24.5,0c2.4,0,3-0.8,2.6-2.9c-2.4-0.1-4.9,0.3-7-1.5
			c-2.2-1.4-3.3-3.5-3.5-6.1c-0.3-3.2-1.2-4-4.5-4.3c-1.3,0.5-2.2,1.5-2.8,2.7c0,0.5-0.1,1-0.1,1.5c0.3,2-0.5,2.9-2.6,2.7
			c-2.2-0.2-4.3-0.1-6.5-0.1C350.8,362.4,351.1,363.5,350.8,364.5z M358.1,363.1c1.6,0.2,2.6,1.1,2.6,2.6c0,1.6-1,2.6-2.6,2.6
			s-2.5-1-2.5-2.6S356.6,363.3,358.1,363.1z"/>
		<path class="st7" d="M345.6,369.4c0.7-1.6,0.1-3.3,0.4-4.9c-0.3-1,0.1-2.1-0.5-3c-0.1,0-0.3,0-0.4-0.1c-1.5,0-3,0.1-4.5,0.1
			c-4.2,0-4.2,0-4.3-4.1c-0.7-1.2-1.5-2.2-2.9-2.7c-3.3,0.3-4.1,1.1-4.5,4.3c-0.6,4.7-3.5,7.3-8.2,7.5c-1.1,0-2.2-0.3-2.1,1.6
			c0.1,1.7,1.2,1.3,2.1,1.3C329.1,369.4,337.4,369.4,345.6,369.4z M338.8,363.1c1.6,0.2,2.5,1.1,2.5,2.7c0,1.5-1,2.6-2.5,2.6
			c-1.6,0-2.7-1.1-2.6-2.7S337.3,363.3,338.8,363.1z"/>
		<path class="st5" d="M313.2,169.4c3,0.8,6.1,1.2,9.2,1.5c0.9-6.2,0.9-6.2-5.1-7.1c-1.5-0.2-3-0.6-4.5-0.5
			C309.9,165.8,310,168.1,313.2,169.4z"/>
		<path class="st5" d="M374.5,170.8c2.8-0.4,5.7-0.7,8.5-1.1c3.8-1.7,4.2-3.9,1.1-6.5c-2.9-0.1-5.6,0.8-8.4,1.1
			c-1.1,0.1-1.3,0.8-1.3,1.7C374.5,167.7,374.5,169.2,374.5,170.8z"/>
		<path class="st14" d="M368.2,89.3c-2.7-1.2-2.7-1.2-3.2,1.6c-0.1,0.7-0.2,1.5-0.2,2.2C366.2,92.1,367.3,90.8,368.2,89.3z"/>
		<path class="st14" d="M331.9,92.9c-0.1-0.9-0.1-1.8-0.3-2.7c-0.1-0.6,0.2-1.6-0.5-1.7c-0.8-0.1-1.9,0-2.2,1.2
			C329.8,90.9,330.6,92.2,331.9,92.9z"/>
		<path class="st15" d="M351.3,357.9c0,1.2,0,2.4,0,3.6c2.2,0,4.4-0.1,6.5,0.1s2.9-0.6,2.6-2.7c-0.1-0.5,0-1,0.1-1.5
			c-2.2-0.6-4.5-0.5-6.9-0.6C352.7,356.8,351.9,357,351.3,357.9z"/>
		<path class="st15" d="M345.5,360.9c0-1.2,0-2.4,0-3.5c-3,0-6.1,0-9.1,0c0.1,4.2,0.1,4.2,4.3,4.1c1.5,0,3-0.1,4.5-0.1
			C345.3,361.2,345.4,361.1,345.5,360.9z"/>
		<path class="st10" d="M348.5,91.8c3.1,0,5.6-2,6.4-4.8c0.3-1.3-0.1-1.8-1.3-1.8c-3.5,0-6.9,0-10.4,0c-1.5,0-1.6,0.8-1.2,2
			C342.9,90.1,345.3,91.8,348.5,91.8z"/>
		<path class="st7" d="M367.5,78.5c-0.2,0.2-0.4,0.3-0.5,0.5c-0.2,0.6-0.4,1.1-0.5,1.7c-0.3,1.9,0.7,3.1,2.5,3.3
			c1.8,0.2,2.8-1,2.9-2.7c0.2-1.9-0.8-2.8-2.7-2.8C368.7,78.6,368.1,78.6,367.5,78.5z"/>
		<path class="st7" d="M329.4,78.9c0-0.1,0-0.3-0.1-0.4c-1,0.2-2-0.2-2.9,0.4c-1.3,0.9-2,2.1-1.2,3.6c0.7,1.3,1.9,2,3.4,1.4
			c1.5-0.7,2.3-1.9,1.6-3.7C329.9,79.8,329.7,79.4,329.4,78.9z"/>
		<path class="st11" d="M356.9,74.7c0-1.2,0.2-2.6-1.5-2.6c-1.5,0-1.5,1.2-1.5,2.3c0,1.2-0.2,2.6,1.4,2.8
			C356.8,77.3,356.9,75.9,356.9,74.7z"/>
		<path class="st11" d="M340,74.7c0.1,1.1-0.2,2.4,1.5,2.4s1.6-1.4,1.6-2.6c0-1.1,0-2.4-1.5-2.4C339.9,72.1,340,73.5,340,74.7z"/>
		<path class="st10" d="M378.3,366.6c0.4,2.1-0.2,2.9-2.6,2.9c-8.2-0.1-16.3,0-24.5,0c-0.5,2.6,0.5,3.3,3.1,3.2
			c8.3-0.2,16.7,0,25.1-0.1c1.1,0,2.7,0.9,3.2-1c0.5-2-0.6-3.4-2.1-4.5C379.9,366.7,379,366.7,378.3,366.6z"/>
		<path class="st9" d="M358.1,363.1c-1.5,0.2-2.5,1-2.5,2.6s1,2.6,2.5,2.6s2.6-1,2.6-2.6C360.7,364.2,359.7,363.3,358.1,363.1z"/>
		<path class="st9" d="M338.8,363.1c-1.5,0.2-2.5,0.9-2.6,2.5c-0.1,1.7,1,2.7,2.6,2.7c1.5,0,2.5-1,2.5-2.6
			C341.3,364.2,340.3,363.3,338.8,363.1z"/>
		<path class="st16" d="M345.5,360.9c-0.1,0.2-0.2,0.3-0.3,0.5c0.1,0,0.3,0.1,0.4,0C345.6,361.3,345.5,361.1,345.5,360.9z"/>
		<path class="st10" d="M319.2,366.3c-0.4,2.1,0.2,2.9,2.6,2.9c8.2-0.1,16.3,0,24.5,0c0.5,2.6-0.5,3.3-3.1,3.2
			c-8.3-0.2-16.7,0-25.1-0.1c-1.1,0-2.7,0.9-3.2-1c-0.5-2,0.6-3.4,2.1-4.5C317.6,366.5,318.5,366.5,319.2,366.3z"/>
		<path class="st2" d="M437,269.5c-2.6-0.1-5.1,1.2-7.7,1.2c-0.5,0-1,0.1-1.5,0.1c0,4.5,0,20.8,0,22.7c0.1,18.4-0.2,36.8,0.4,55.2
			c0.2,5.6-1.3,9.5-5.5,12.7c-0.9,0.7-1.7,1.7-2.5,2.5c2.5,2.4,5,2.7,7.9,0.7c3.6-2.5,7-5.3,10.5-7.9c-2.2-2.2-1.7-5.1-1.7-7.8
			c0-14.3,0-28.5,0.1-42.8c0-5.2,0.1-10.5,0.2-15.7C437,289.5,436.9,273.5,437,269.5z"/>
		<path class="st2" d="M463.8,364c-2-2-3.9-4.2-6-6.1c-1.3-1.2-1.8-2.4-1.8-4.2c0.1-20.6,0.1-41.1,0.1-61.7c0-2.2,0.1-21.9,0.1-21.9
			s-3.5-0.2-9.5-0.1c0,3.2,0.2,13.7,0.1,16.9c0,5.2,0.1,10.5,0.1,15.7c0.2,14.8-0.2,29.7,0.3,44.5c0.1,3.4,0.7,6.9-1.9,9.8
			c3.7,2.1,6.8,5.2,10.3,7.5C458.9,366.5,461.4,366.4,463.8,364z"/>
		<path class="st5" d="M413.5,216c0,13.2,0,26.3,0,39.5c0,4.3,0,10.9,0.1,15.2c0,0.8,20.9,0.2,23.4,0.3c1.1-0.1,15.4-0.1,15.5-0.1
			c1.2,0,2.4,0,3.7,0c0.6,0,1.3,0,1.9,0c3.9,0,7.7,0,11.6,0c1-0.7,0.6-1.9,0.6-2.8c0.1-8.4,0.1-16.9,0.2-25.3
			c0-11.9-0.2-23.8-0.1-35.7c0.1-5.3-0.3-10.4-3.2-15.1c-0.7-1.2-1.1-2.6-1.6-4c0-0.2-0.9-1.7-1-2.5l0,0c-1.2-0.9-1.1-3-3-3.2
			c0,0.3,0,0.7,0,1c0,3.9-1.5,6-4.4,6.2c-3.1,0.2-4.9-1.6-5.2-5.7c-0.1-1.6,1.9-1.7-2-1.6c-9,0-18,0-27,0c-0.4,0-0.8,0.1-1.2,0.1
			c-0.5,0.4-1.1,0.7-1.4,1.4c-2.1,4.8-4.3,9.5-6.3,14.3c-0.6,1.3-0.6,2.8-0.6,4.2C413.6,206.9,413.5,211.4,413.5,216z"/>
		<path class="st2" d="M415.6,96.9c-1.7,3-1.9,6.1,0,9.1c1.2,0.6,2,1.9,3.5,2.1c0.5-1.8,1.8-2.4,3.5-2c1.6,0.5,1.8,1.8,1.6,3.2
			c1.1,1.7,2.1,3.3,3.2,5c3,2.9,6.4,4.9,10.5,5.4c2.7,0,5.5,0,8.2,0c4.2-0.7,7.7-2.6,10.6-5.7c1.2-1.7,2.3-3.3,3-5.3
			c0.3-1.6,0.8-2.9,2.7-2.9c1.7,0,2.2,1.1,2.4,2.6c1.1-0.8,2.3-1.7,3.4-2.5c2.1-3.1,2.1-6.1,0-9.2c-4.2-3.3-6.5-3.4-10.8,0
			c-0.8,0.6-1.5,0.6-2.4,0.5c-5.3-0.9-9.5-5.7-9.8-11.1c-0.1-1.8-0.2-3.5-0.2-5.3c0-0.8-0.1-1.3-1.1-1.3c-2.7,0.2-5.4-0.4-8.1,0.3
			c-6.7,1.6-10.9,5.7-12.6,12.4c-0.2,0.8,0,2.2-1.6,2.1C419.4,94.1,417.4,95.4,415.6,96.9z M441.7,106.9c1.3,0,2.7,0,4,0
			c0.6,0,1.1,0.2,1.1,1c0,1.5-2.2,4.4-3.9,4.9c-2.1,0.7-3.4-0.6-4.5-2c-0.8-1-1.8-2.2-1.3-3.4c0.5-1.1,2-0.4,3-0.5
			C440.7,106.8,441.2,106.9,441.7,106.9z M446.1,98.6c-0.1-1.1,0.2-2.3,1.8-2.3c1.4,0,1.7,1,1.7,2.2c0,1.3-0.3,2.5-1.8,2.5
			C446.4,101.1,446.1,100,446.1,98.6z M434.4,98.7c0-1.2,0.1-2.3,1.6-2.4c1.6-0.1,1.9,1.1,1.9,2.4c0,1.2-0.3,2.3-1.7,2.3
			C434.7,101,434.3,99.9,434.4,98.7z"/>
		<path class="st14" d="M415.6,96.9c1.9-1.5,3.8-2.8,6.4-2.5c1.6,0.2,1.4-1.2,1.6-2.1c1.6-6.8,5.9-10.8,12.6-12.4
			c2.7-0.6,5.4-0.1,8.1-0.3c0.9-0.1,1.1,0.4,1.1,1.3c0,1.8,0.1,3.5,0.2,5.3c0.2,5.4,4.5,10.2,9.8,11.1c0.8,0.1,1.6,0.1,2.4-0.5
			c4.2-3.3,6.5-3.3,10.8,0c0-3.2,0.5-6.4,0.1-9.6C467.5,77.9,460,71,450.6,71c-2.9,0-4.8-0.7-6.9-2.9c-6.5-7.2-17.4-7.8-25-1.8
			s-9.4,16.7-4,24.7C415.8,93,415.3,94.9,415.6,96.9z"/>
		<path class="st13" d="M422.8,182.3c9.1,0,18.2,0,27.3,0c2.7,0,3.3,1,2-1.8c-1.8,0.1-3.7,0.4-5.5,0.3c-2.9-0.1-4.6-1.9-4.7-4.5
			c-0.2-4,0.7-5.2,3.9-6.2c2.1-0.6,4.2-0.2,6.2-0.4c-0.3-3.6,1.2-5.9,4.5-7.2c0.2-1.6-0.8-3.5,1.4-4.4c-0.2-0.9-1.1-0.9-1.7-1.3
			c-2.5-1.6-5.3-2.8-7.6-4.8c-3.3-0.8-4.9-2.7-4.3-5.6c0.2-1.1,0.8-2.1,1.7-2.7c1.5-1,3.3-1,5.1-0.4c-1.4-3.2-0.8-5.1,2-6.4
			c1.4-0.7,1.3-1.6,1.2-2.7c-2.7-0.8-5.4-1.4-7.6-3.4c-0.6,0.2-0.3,0.1-0.8,0.4c0,1.2,0,2.3,0,3.5c0,2.9-1.2,4.2-3.8,4.2
			c-2.6,0.1-4.2-1.4-4.3-4.1c0-1,0-2,0-3c-0.5-0.3-0.6-0.3-1.1-0.6c-2.3,1.5-4.9,2.4-7.5,3.2c-1.6,1.7-2.1,3.8-2,6c0,1.5,0,3,0,4.6
			c0,1.3-0.2,2.4-1.1,3.5c-2.1,2.7-2.2,5.8-0.5,8.5c1.8,2.8,1.9,5.5,1.5,8.5c-0.2,1.6-2.6,9.7-3.5,12.3
			C423.3,179,422.4,182,422.8,182.3z"/>
		<path class="st2" d="M454.5,134.3c0.1,1.1,0.2,2-1.2,2.7c-2.9,1.4-3.4,3.2-2,6.4c-1.9-0.6-3.6-0.6-5.1,0.4
			c-0.9,0.6-1.5,1.6-1.7,2.7c-0.5,2.9,1,4.8,4.3,5.6c4.1-1,5.1-2.6,4.3-7.2c1.4,0.8,2.6,1.4,3.7,2.2c4.5,3.4,9.3,4.9,15,4.5
			c3.6-0.3,6.8-1,9.2-3.8c1.2-1.2,0.5-5.1,4-2.9c0.4,0,0.8,0.1,0.8,0.7c-0.2,4.6,0.7,5.8,5.2,6.2c2.2-0.8,3.6-2.3,3.5-4.7
			c-0.1-2.6-1.6-4-4.1-4.4c-1-0.2-1.3-0.5-1.1-1.7c0.3-1.7-0.5-3.4-2.2-3.9c-1.9-0.5-1.7-1.7-1.7-3.1c-0.1-4.4-1.3-8.3-5.2-10.9
			c-1.5,0.9-3.1,1.1-4.8,1c-2.7-0.1-5.4-0.2-8.1,0c-2.7,0.3-3.5-0.8-3.1-3.3c-3,0.4-5,2.3-7.1,4.3c-1.1,1.9-2.1,3.9-2.6,6.1
			C454.6,132.3,454.5,133.3,454.5,134.3z M469.1,139L469.1,139c1,0,2,0,3,0c0.8,0,1.3,0.4,1.1,1.2c-0.5,1.7-1.4,3.1-3.1,3.7
			c-1.3,0.4-2.5,0-3.4-1.1c-0.7-0.9-1.6-2.1-1.3-3.1c0.5-1.4,2.1-0.4,3.2-0.7C468.8,138.9,469,139,469.1,139z M473.7,137.2
			c-0.8-0.1-1.2-0.6-1.3-1.5c0-0.9-0.1-1.9,1.2-2.1c1-0.1,1.3,0.6,1.3,1.4C474.9,136,474.9,136.9,473.7,137.2z M465,133.7
			c1.1,0,1.3,0.8,1.3,1.7c0,0.8-0.2,1.6-1.1,1.7c-1.1,0.1-1.4-0.7-1.4-1.6C463.7,134.6,463.8,133.8,465,133.7z M477.7,140
			c0.6,0.1,0.7,0.6,0.7,1.1c-0.1,0.6-0.5,0.8-1.1,0.7s-0.9-0.5-0.7-1C476.7,140.3,477.1,140,477.7,140z"/>
		<path class="st17" d="M481.1,147.8c-2.4,2.8-5.6,3.6-9.2,3.8c-5.7,0.4-10.6-1.1-15-4.5c-1.1-0.8-2.4-1.4-3.7-2.2
			c0.9,4.5-0.1,6.1-4.3,7.2c2.3,1.9,5.1,3.1,7.6,4.8c0.6,0.4,1.5,0.4,1.7,1.3c0,1,0,2,0.1,3c0.1,1.1-0.5,1.5-1.5,1.4
			c-3.3,1.3-4.8,3.7-4.5,7.2c9.4-0.3,18.9-0.6,28.3-1c0.1-3.1,0.3-6.2,0.3-9.3c0-1.1,0.4-1.8,1.4-2.4c2.1-1.2,4.3-2.2,6.1-4
			c-4.2-0.2-5.4-2-4.8-6.7C482.7,146.9,481.9,147.4,481.1,147.8z"/>
		<path class="st6" d="M427.3,165.5c0.4-3,0.2-5.8-1.5-8.5s-1.7-5.8,0.5-8.5c0.9-1.1,1.1-2.2,1.1-3.5c0-1.5,0-3,0-4.6
			c0-2.3,0.4-4.3,2-6c-2.4,0.1-3.9,1.4-4.6,3.6c-4.4,13.4-8.8,26.7-13.2,40.1c-0.2,0.6-0.3,1.2-0.3,1.7c-0.4,10.3-0.8,20.6-1.2,30.8
			c-0.1,2.7,0.7,4.6,3.5,5.4c0-4.5,0.1-9.1,0.1-13.6c0-1.4,0-2.9,0.6-4.2c2.1-4.8,4.2-9.5,6.3-14.3c0.3-0.7,0.9-0.9,1.4-1.4
			c-0.1-0.1-0.1-0.2,0-0.3c0-0.3,0-0.5,0-0.8C423,177.5,427.1,167.1,427.3,165.5z"/>
		<path class="st4" d="M411.6,369.1c-2.7,0.2-5.3,0.9-7.8,1.9c-0.9,0.3-1.8,0.8-1.8,1.9s0.9,1.5,1.8,1.9c3.3,1.4,6.8,1.9,10.3,2.4
			c12.7,1.7,25.5,1.9,38.3,1.5c8.6-0.3,17.3-0.7,25.7-3c1.8-0.5,4.4-0.5,4.4-3c-0.1-2-2.6-2-4.2-2.5c-1.8-0.5-3.8-0.7-5.7-1.1
			c0.5,2.5-0.3,3.5-3,3.3c-2.9-0.3-5.9-0.3-8.8,0c-4.1,0.4-7.6-0.4-10.1-4c-0.2-0.3-0.5-0.7-1-0.6c-0.5,0.6-0.3,1.3-0.2,1.9
			c0.1,1.7-0.1,2.8-2.3,2.7c-2.4,0-2-1.4-2-2.8c0-0.8-0.1-1.7-0.1-2.5c-1.9,0-3.7,0-5.6,0c-0.1,1.1-0.3,2.2-0.2,3.3
			c0.1,1.5-0.4,2-2,2.1c-2,0.1-2.6-0.6-2.3-2.4c0.1-0.8,0-1.6,0-2.4c-1.2,0.5-2,1.2-2.5,2c-1.6,2.2-3.8,3-6.5,2.8
			c-3.7-0.2-7.4-0.2-11.1,0C411.9,372.5,411.1,371.6,411.6,369.1z"/>
		<path class="st2" d="M480.5,168.8c-9.4,0.3-18.9,0.6-28.3,1c-2.1,0.2-4.2-0.1-6.2,0.4c-3.3,0.9-4.2,2.2-3.9,6.2
			c0.2,2.6,1.9,4.4,4.7,4.5c1.8,0.1,3.7-0.2,5.5-0.3c3.2-0.1,6.3-0.1,9.5-0.2c1.6-0.1,2.3-0.2,4.3-0.3c2.8-0.1,5.7-0.2,8.5-0.4
			c1.3-0.1,2.5-0.2,3.8-0.2c2.4,0,4.5-0.7,5.2-3.1c0.7-2.4,0.6-4.9-1.7-6.7C481.3,169.4,480.9,169.1,480.5,168.8z"/>
		<path class="st14" d="M419.1,108c-1.5-0.2-2.3-1.5-3.5-2.1c0,7.1-0.1,14.1,0,21.2c0,2.9,1.3,4.1,4.2,4.2c2.4,0,4.7-0.1,7.1-0.1
			c0-3.8,0-7.5,0-11.3c0-1.9-0.4-3.8,0.5-5.7c-1.1-1.7-2.1-3.3-3.2-5c-0.7,1-1.6,1.9-2.9,1.5C419.7,110.5,419.2,109.4,419.1,108z"/>
		<path class="st14" d="M444.9,367c0,0.8,0.1,1.7,0.1,2.5c0,1.4-0.4,2.8,2,2.8c2.3,0,2.4-1,2.3-2.7c0-0.6-0.3-1.3,0.2-1.9
			c0.5-0.1,0.8,0.3,1,0.6c2.5,3.6,5.9,4.4,10.1,4c2.9-0.3,5.9-0.3,8.8,0c2.7,0.2,3.5-0.8,3-3.3c-1.1-2.9-3-4.8-6.2-5.1
			c-0.4,0-0.7,0-1.1,0c-0.5,0-0.9,0.1-1.4,0.1c-2.5,2.4-5,2.6-8.1,0.5c-3.5-2.4-6.6-5.4-10.3-7.5C444.3,360.2,445.4,363.7,444.9,367
			z"/>
		<path class="st14" d="M411.6,369.1c-0.5,2.5,0.3,3.4,3,3.3c3.7-0.3,7.4-0.2,11.1,0c2.8,0.2,4.9-0.6,6.5-2.8c0.6-0.8,1.3-1.5,2.5-2
			c0,0.8,0.1,1.6,0,2.4c-0.2,1.9,0.4,2.5,2.3,2.4c1.6-0.1,2.1-0.5,2-2.1c-0.1-1.1,0.1-2.2,0.2-3.3c-0.1-3-0.1-6.1-0.2-9.1
			c-0.1-0.1-0.1-0.3-0.1-0.4c-0.1-0.2-0.3-0.5-0.4-0.7c-3.5,2.6-6.9,5.4-10.5,7.9c-2.9,2-5.4,1.7-7.9-0.7
			C415.9,363.4,413.1,365.2,411.6,369.1z"/>
		<path class="st11" d="M427.3,114.3c-0.9,1.8-0.5,3.8-0.5,5.7c-0.1,3.8,0,7.5,0,11.3c3.2,0.1,6.4,0.1,9.6,0.2c0.5,0,1-0.1,1.5-0.1
			c0-0.2,0.1-0.3,0.1-0.5c-0.1-0.2,0-0.3,0-0.5c0-1.8,0-3.7,0-5.5c-0.1-1.7-0.2-3.4-0.2-5C433.7,119.2,430.3,117.2,427.3,114.3z"/>
		<path class="st14" d="M457.2,125.3c2.1-1.9,4.2-3.8,7.1-4.3c0.6-2.1,1.9-3.6,4.2-4c-0.1-3.7-0.1-7.4-0.2-11
			c-1.1,0.8-2.3,1.7-3.4,2.5c-0.1,1.3-0.9,2.2-2.2,2.4c-1.6,0.3-2.3-1-3-2.1c-0.7,1.9-1.8,3.6-3,5.3c0.7,0.7,0.4,1.6,0.4,2.4
			C457.2,119.4,457.2,122.3,457.2,125.3z"/>
		<path class="st3" d="M468.5,117c-2.3,0.4-3.5,1.9-4.2,4c-0.4,2.4,0.4,3.5,3.1,3.2s5.4-0.1,8.1,0c1.7,0.1,3.3-0.1,4.8-1
			c0.3-0.6,0.7-1.1,0.9-1.8c1.3-3.2,0.4-4.5-3-4.5C475,117,471.7,117,468.5,117z"/>
		<path class="st1" d="M465.9,180.1c-2,0.1-0.7,1.6-1.1,2.4c0,1,0,2,0,3l0,0c0.3,1.7,1,2.1,1,2.1l0,0c0.2,0.2,0.4,0.3,0.6,0.5
			c1.8,1.4,3.8,1.7,5.9,0.6c2-1.1,2.4-2.9,2.3-4.9c-0.1-1.1-0.1-2.2-0.1-3.3C471.5,180.3,468.7,180.8,465.9,180.1z"/>
		<path class="st1" d="M483.5,146.5c-0.7,4.7,0.6,6.5,4.8,6.7c1.1,0,2-0.5,2.8-1.3c-4.5-0.4-5.4-1.5-5.2-6.2c0-0.6-0.3-0.7-0.8-0.7
			C484.6,145.4,484.1,145.9,483.5,146.5z"/>
		<path class="st1" d="M465.9,180.1c2.8,0.7,5.6,0.2,8.4,0.3c0-0.2,0.1-0.5,0.1-0.7C471.6,179.9,468.7,180,465.9,180.1z"/>
		<path class="st8" d="M481.6,236.7c0-0.3,0-0.6-0.1-0.9c-0.4,0.1-0.9,0-0.8,0.5C480.8,236.8,481.3,236.6,481.6,236.7z"/>
		<path class="st6" d="M465.2,363.9c0.4,0,0.7,0,1.1,0C465.9,363.5,465.6,363.6,465.2,363.9z"/>
		<path class="st1" d="M461.7,180.4c-3.2,0.1-6.3,0.1-9.5,0.2c0.2,1.6-0.2,1.8,0,3.4c0.3,4.1,2.1,5.9,5.2,5.7
			c2.9-0.2,4.4-2.3,4.4-6.2c0-0.3,0-0.7,0-1C461.7,181.7,461.7,181.1,461.7,180.4z"/>
		<path class="st11" d="M457.2,125.3c0-2.9,0-5.9,0-8.8c0-0.8,0.3-1.7-0.4-2.4c-2.9,3-6.4,5-10.6,5.7c0,1.1-0.1,2.3-0.1,3.4
			c0,2.7,0,5.3,0.1,8c0.5,0.1,1,0.2,1.5,0.3c2.3,0,4.7-0.1,7-0.1C455.1,129.2,456.1,127.2,457.2,125.3z"/>
		<path class="st10" d="M441.7,106.9c-0.5,0-1-0.1-1.5,0c-1,0.1-2.5-0.6-3,0.5c-0.5,1.2,0.5,2.4,1.3,3.4c1.1,1.4,2.4,2.7,4.5,2
			c1.7-0.5,3.9-3.4,3.9-4.9c0-0.8-0.5-1-1.1-1C444.4,106.9,443.1,106.9,441.7,106.9z"/>
		<path class="st6" d="M446,123.2c0-1.1,0.1-2.3,0.1-3.4c-2.7,0-5.5,0-8.2,0c0.1,1.7,0.2,3.4,0.2,5
			C440.7,124.2,443.3,123.7,446,123.2z"/>
		<path class="st9" d="M419.1,108c0.1,1.4,0.7,2.5,2.1,2.8s2.2-0.5,2.9-1.5c0.2-1.5,0-2.8-1.6-3.2
			C420.9,105.6,419.6,106.3,419.1,108z"/>
		<path class="st9" d="M459.7,108.8c0.7,1.1,1.4,2.4,3,2.1c1.3-0.2,2-1,2.2-2.4c-0.2-1.4-0.8-2.5-2.4-2.6
			C460.5,105.9,460,107.3,459.7,108.8z"/>
		<path class="st11" d="M446.1,98.6c0,1.4,0.3,2.5,1.7,2.5c1.5,0,1.8-1.2,1.8-2.5c0-1.2-0.3-2.3-1.7-2.2
			C446.2,96.3,446,97.5,446.1,98.6z"/>
		<path class="st11" d="M434.4,98.7c-0.1,1.2,0.3,2.3,1.7,2.2c1.4,0,1.7-1,1.7-2.3s-0.3-2.5-1.9-2.4
			C434.5,96.4,434.3,97.5,434.4,98.7z"/>
		<path class="st2" d="M446,123.2c-2.6,0.5-5.3,1.1-7.9,1.6c0,1.8,0,3.7,0,5.5l0.1,0.1c0,0.1-0.1,0.2-0.2,0.3c0,0.2-0.1,0.3-0.1,0.5
			c0,1.2,0,2.4,0,3.5c0.1,2.7,1.7,4.2,4.3,4.1c2.6-0.1,3.8-1.4,3.8-4.2c0-1.2,0-2.3,0-3.5C446,128.5,446,125.8,446,123.2z"/>
		<path class="st9" d="M454.6,131.3c-2.3,0-4.7,0.1-7,0.1c2.1,1.5,4.6,2.1,6.9,2.8C454.5,133.3,454.6,132.3,454.6,131.3z"/>
		<path class="st6" d="M456.7,162.6c1.1,0.1,1.6-0.3,1.5-1.4c-0.1-1-0.1-2-0.1-3C455.9,159,456.9,161,456.7,162.6z"/>
		<path class="st9" d="M469.1,139c-0.2,0-0.3,0-0.5,0c-1.1,0.2-2.7-0.7-3.2,0.7c-0.4,1,0.5,2.2,1.3,3.1c0.9,1.1,2.1,1.5,3.4,1.1
			c1.7-0.6,2.7-2,3.1-3.7c0.2-0.9-0.3-1.2-1.1-1.2C471.2,139,470.2,139,469.1,139L469.1,139z"/>
		<path class="st11" d="M473.7,137.2c1.3-0.3,1.3-1.2,1.2-2.2c0-0.8-0.4-1.5-1.3-1.4c-1.2,0.2-1.2,1.2-1.2,2.1
			C472.4,136.6,472.9,137.1,473.7,137.2z"/>
		<path class="st11" d="M465,133.7c-1.1,0.1-1.3,0.9-1.2,1.8c0,0.9,0.3,1.7,1.4,1.6c0.9-0.1,1.1-0.9,1.1-1.7S466.1,133.8,465,133.7z
			"/>
		<path class="st8" d="M483.5,146.5c0.5-0.5,1.1-1,1.6-1.5c-3.6-2.2-2.8,1.7-4,2.9C481.9,147.4,482.7,146.9,483.5,146.5z"/>
		<path class="st7" d="M477.7,140c-0.6,0-1,0.3-1.1,0.8c-0.2,0.6,0.1,1,0.7,1c0.5,0.1,1-0.1,1.1-0.7
			C478.4,140.6,478.3,140.1,477.7,140z"/>
		<path class="st18" d="M439.1,357.8c0-0.1,0.1-0.2,0.1-0.3c0,0-0.1-0.1-0.2-0.1C438.9,357.6,439,357.7,439.1,357.8z"/>
		<path class="st7" d="M438,130.8c0.1-0.1,0.1-0.2,0.2-0.3l-0.1-0.1C438,130.4,438,130.6,438,130.8z"/>
		<path class="st9" d="M403.8,269.9"/>
	</g>
	<text transform="matrix(1 0 0 1 29.9974 89.3712)" class="st13 st19 st20">РОДИТЕЛЯМ</text>
</g>
</svg>
