<?xml version="1.0" encoding="utf-8"?>
<!-- Generator: Adobe Illustrator 22.0.1, SVG Export Plug-In . SVG Version: 6.00 Build 0)  -->
<svg version="1.1" baseProfile="basic" xmlns="http://www.w3.org/2000/svg" xmlns:xlink="http://www.w3.org/1999/xlink" x="0px"
	 y="0px" viewBox="0 0 1920 1080" xml:space="preserve">
<style type="text/css">
	.st0{fill:#C9C9C9;}
	.st1{fill:none;stroke:#727272;stroke-width:16;stroke-miterlimit:10;}
	.st2{fill:#727272;}
</style>
<g id="Слой_1">
	<rect x="-59.8" y="-27" class="st0" width="2033.5" height="1144.9"/>
</g>
<g id="Слой_2">
	<circle class="st1" cx="148.5" cy="349.5" r="97.5"/>
	<circle class="st1" cx="173.5" cy="792.5" r="55.5"/>
	<circle class="st1" cx="1809.5" cy="201.5" r="77.5"/>
	<circle class="st1" cx="1848" cy="1010" r="21"/>
	
		<rect x="1697.6" y="580.7" transform="matrix(0.7071 -0.7071 0.7071 0.7071 56.3292 1436.6788)" class="st1" width="129.5" height="139.2"/>
	<polygon class="st1" points="608.4,998.6 473.1,1015.3 458.4,882.1 593.7,865.3 	"/>
	<polygon class="st1" points="275.7,115.6 197.1,125.3 188.5,47.9 267.1,38.2 	"/>
	<polygon class="st1" points="1458.4,48.1 1412,128.4 1458.4,208.7 1551.2,208.7 1597.5,128.4 1551.2,48.1 	"/>
	<polygon class="st1" points="445.1,348.7 384.1,454.4 445.1,560.1 567.1,560.1 628.1,454.4 567.1,348.7 	"/>
	<circle class="st1" cx="1503" cy="902" r="109"/>
	<g>
		<path class="st2" d="M653.7,500.7c4.8-0.8,11.1-1.5,19.1-1.5c9.8,0,17,2.3,21.6,6.4c4.2,3.7,6.7,9.3,6.7,16.1
			c0,7-2.1,12.4-5.9,16.4c-5.3,5.6-13.8,8.5-23.5,8.5c-3,0-5.7-0.1-8-0.7v30.8h-9.9V500.7z M663.6,537.8c2.2,0.6,4.9,0.8,8.2,0.8
			c12,0,19.3-5.8,19.3-16.4c0-10.2-7.2-15.1-18.2-15.1c-4.3,0-7.7,0.3-9.4,0.8V537.8z"/>
		<path class="st2" d="M779.3,537.5c0,26.5-16.1,40.5-35.7,40.5c-20.3,0-34.6-15.8-34.6-39.1c0-24.4,15.2-40.4,35.7-40.4
			C765.7,498.5,779.3,514.6,779.3,537.5z M719.6,538.7c0,16.4,8.9,31.2,24.6,31.2c15.8,0,24.7-14.5,24.7-32c0-15.3-8-31.3-24.6-31.3
			C727.8,506.6,719.6,521.8,719.6,538.7z"/>
		<path class="st2" d="M842.5,499.8v68.9l6.7,0.2l-0.7,26.4h-7.8l-0.7-18.5h-48.5l-0.7,18.5h-7.8l-0.7-26.4l5.8-0.2
			c2.9-5.3,5.7-10.9,7.5-16.9c2.6-8.9,3.7-19.2,3.7-32.4v-19.5H842.5z M808.7,522.5c0,12.3-1.1,22.7-3.9,31.4
			c-1.6,5.4-4,10.5-6.3,14.6h34V508h-23.9V522.5z"/>
		<path class="st2" d="M871.1,499.8v32.4c0,12.2-0.2,22.3-0.9,32.6l0.2,0.1c3.9-8,8.7-16.3,14.3-25.5l24.9-39.6h9.9v77h-9.4V544
			c0-12.4,0.1-21.6,0.9-31.3l-0.3-0.1c-3.8,8.5-9,17.4-14.3,25.9l-24.1,38.3h-10.6v-77H871.1z"/>
		<path class="st2" d="M951.5,508.2h-23.4v-8.5h57v8.5h-23.5v68.5h-10.1V508.2z"/>
		<path class="st2" d="M1033.5,540.6h-29.9v27.8h33.4v8.3h-43.3v-77h41.6v8.3h-31.6v24.3h29.9V540.6z"/>
		<path class="st2" d="M1103.4,499.8v77h-10.1v-68.6h-25.5v23.3c0,16.7-0.7,35.3-11.5,42.6c-2.9,1.8-7.3,3.7-11.8,3.7l-1.3-8
			c3.1-0.6,6.3-2.4,8.1-4.1c6.2-6.1,6.7-21,6.7-33.4v-32.4H1103.4z"/>
		<path class="st2" d="M1113.7,576.7c1.1-2.1,2.2-4.5,3.1-7c3.3-8.8,5.4-19.5,11.6-25.8c1.8-1.8,4.1-3.2,6.4-3.9v-0.3
			c-9.5-1.6-17-8.5-17-19c0-6.7,2.7-12.1,7.1-15.6c4.8-3.9,12.3-5.9,22-5.9c6.5,0,13.4,0.6,18.4,1.6v76h-9.9v-33.4h-7.3
			c-4.8,0-8.3,1-11.1,3.8c-5.3,5.4-7.4,16.7-10.2,24c-0.8,1.9-1.4,3.5-2.5,5.6H1113.7z M1155.4,507.8c-1.7-0.3-4.9-0.9-9.4-0.9
			c-9.8,0-18.2,3.8-18.2,14.4c0,9.3,8.2,14.6,19.1,14.6c3.3,0,6.5,0,8.5-0.1V507.8z"/>
		<path class="st2" d="M1247.5,542.9c-0.6-10.7-1.3-23.6-1.1-33.2h-0.3c-2.6,9-5.8,18.6-9.7,29.2l-13.6,37.3h-7.5l-12.4-36.7
			c-3.7-10.9-6.7-20.8-8.9-29.9h-0.2c-0.2,9.6-0.8,22.5-1.5,34l-2.1,33h-9.5l5.4-77h12.7l13.1,37.2c3.2,9.5,5.8,17.9,7.8,25.9h0.3
			c1.9-7.8,4.7-16.2,8.1-25.9l13.7-37.2h12.7l4.8,77h-9.7L1247.5,542.9z"/>
	</g>
</g>
</svg>
