<?xml version="1.0" encoding="utf-8"?>
<!-- Generator: Adobe Illustrator 22.0.1, SVG Export Plug-In . SVG Version: 6.00 Build 0)  -->
<svg version="1.1" baseProfile="basic" xmlns="http://www.w3.org/2000/svg" xmlns:xlink="http://www.w3.org/1999/xlink" x="0px"
	 y="0px" viewBox="0 0 1920 1080" xml:space="preserve">
<style type="text/css">
	.st0{fill:#C9C9C9;}
	.st1{fill:none;stroke:#727272;stroke-width:16;stroke-miterlimit:10;}
	.st2{fill:#727272;}
</style>
<g id="Слой_1">
	<rect x="-59.8" y="-27" class="st0" width="2033.5" height="1144.9"/>
</g>
<g id="Слой_2">
	<circle class="st1" cx="148.5" cy="349.5" r="97.5"/>
	<circle class="st1" cx="173.5" cy="792.5" r="55.5"/>
	<circle class="st1" cx="1809.5" cy="201.5" r="77.5"/>
	<circle class="st1" cx="1848" cy="1010" r="21"/>
	
		<rect x="1697.6" y="580.7" transform="matrix(0.7071 -0.7071 0.7071 0.7071 56.3292 1436.6788)" class="st1" width="129.5" height="139.2"/>
	<polygon class="st1" points="608.4,998.6 473.1,1015.3 458.4,882.1 593.7,865.3 	"/>
	<polygon class="st1" points="275.7,115.6 197.1,125.3 188.5,47.9 267.1,38.2 	"/>
	<polygon class="st1" points="1458.4,48.1 1412,128.4 1458.4,208.7 1551.2,208.7 1597.5,128.4 1551.2,48.1 	"/>
	<polygon class="st1" points="445.1,348.7 384.1,454.4 445.1,560.1 567.1,560.1 628.1,454.4 567.1,348.7 	"/>
	<circle class="st1" cx="1503" cy="902" r="109"/>
	<g>
		<path class="st2" d="M611.7,502.8c4.3-0.9,11.2-1.6,18.2-1.6c9.9,0,16.3,1.7,21.1,5.6c4,3,6.4,7.5,6.4,13.6
			c0,7.4-4.9,13.9-13,16.9v0.2c7.3,1.8,15.9,7.9,15.9,19.3c0,6.6-2.6,11.6-6.5,15.4c-5.4,4.9-14,7.2-26.6,7.2
			c-6.9,0-12.1-0.5-15.4-0.9V502.8z M621.6,534.3h9c10.5,0,16.7-5.5,16.7-12.9c0-9-6.9-12.6-16.9-12.6c-4.6,0-7.2,0.3-8.8,0.7V534.3
			z M621.6,571.2c1.9,0.3,4.8,0.5,8.3,0.5c10.3,0,19.8-3.8,19.8-15c0-10.5-9-14.8-19.9-14.8h-8.2V571.2z"/>
		<path class="st2" d="M738.5,539.5c0,26.5-16.1,40.5-35.7,40.5c-20.3,0-34.6-15.8-34.6-39.1c0-24.4,15.2-40.4,35.7-40.4
			C724.9,500.5,738.5,516.6,738.5,539.5z M678.7,540.7c0,16.4,8.9,31.2,24.6,31.2c15.8,0,24.7-14.5,24.7-32c0-15.3-8-31.3-24.6-31.3
			C686.9,508.6,678.7,523.8,678.7,540.7z"/>
		<path class="st2" d="M805.1,576.2c-3.7,1.8-11,3.7-20.3,3.7c-21.7,0-38-13.7-38-38.9c0-24.1,16.3-40.4,40.2-40.4
			c9.6,0,15.6,2.1,18.3,3.4l-2.4,8.1c-3.8-1.8-9.1-3.2-15.5-3.2c-18,0-30,11.5-30,31.8c0,18.8,10.9,31,29.6,31
			c6.1,0,12.2-1.3,16.2-3.2L805.1,576.2z"/>
		<path class="st2" d="M873.2,501.8v77h-9.9v-68.6h-35.7v68.6h-9.9v-77H873.2z"/>
		<path class="st2" d="M899.9,501.8v32.4c0,12.2-0.2,22.3-0.9,32.6l0.2,0.1c3.9-8,8.7-16.3,14.3-25.5l24.9-39.6h9.9v77H939V546
			c0-12.4,0.1-21.6,0.9-31.3l-0.3-0.1c-3.8,8.5-9,17.4-14.3,25.9l-24.1,38.3h-10.6v-77H899.9z"/>
		<path class="st2" d="M980.3,510.2h-23.4v-8.5h57v8.5h-23.5v68.5h-10.1V510.2z"/>
		<path class="st2" d="M1025.7,554.5l-8,24.2h-10.3l26.2-77h12l26.3,77h-10.6l-8.2-24.2H1025.7z M1050.9,546.8l-7.5-22.2
			c-1.7-5-2.9-9.6-4-14h-0.2c-1.1,4.6-2.4,9.3-3.9,13.9l-7.5,22.3H1050.9z"/>
		<path class="st2" d="M1092.7,510.2h-23.4v-8.5h57v8.5h-23.5v68.5h-10.1V510.2z"/>
		<path class="st2" d="M1174.7,542.6h-29.9v27.8h33.4v8.3h-43.3v-77h41.6v8.3h-31.6v24.3h29.9V542.6z"/>
		<path class="st2" d="M1244.6,501.8v77h-10.1v-68.6h-25.5v23.3c0,16.7-0.7,35.3-11.5,42.6c-2.9,1.8-7.3,3.7-11.8,3.7l-1.3-8
			c3.1-0.6,6.3-2.4,8.1-4.1c6.2-6.1,6.7-21,6.7-33.4v-32.4H1244.6z"/>
		<path class="st2" d="M1254.9,578.7c1.1-2.1,2.2-4.5,3.1-7c3.3-8.8,5.4-19.5,11.6-25.8c1.8-1.8,4.1-3.2,6.4-3.9v-0.3
			c-9.5-1.6-17-8.5-17-19c0-6.7,2.7-12.1,7.1-15.6c4.8-3.9,12.3-5.9,22-5.9c6.5,0,13.4,0.6,18.4,1.6v76h-9.9v-33.4h-7.3
			c-4.8,0-8.3,1-11.1,3.8c-5.3,5.4-7.4,16.7-10.2,24c-0.8,1.9-1.4,3.5-2.5,5.6H1254.9z M1296.6,509.8c-1.7-0.3-4.9-0.9-9.4-0.9
			c-9.8,0-18.2,3.8-18.2,14.4c0,9.3,8.2,14.6,19.1,14.6c3.3,0,6.5,0,8.5-0.1V509.8z"/>
		<path class="st2" d="M1388.7,544.9c-0.6-10.7-1.3-23.6-1.1-33.2h-0.3c-2.6,9-5.8,18.6-9.7,29.2l-13.6,37.3h-7.5l-12.4-36.7
			c-3.7-10.9-6.7-20.8-8.9-29.9h-0.2c-0.2,9.6-0.8,22.5-1.5,34l-2.1,33h-9.5l5.4-77h12.7L1353,539c3.2,9.5,5.8,17.9,7.8,25.9h0.3
			c1.9-7.8,4.7-16.2,8.1-25.9l13.7-37.2h12.7l4.8,77h-9.7L1388.7,544.9z"/>
	</g>
</g>
</svg>
