<svg id="Слой_15" data-name="Слой 15" xmlns="http://www.w3.org/2000/svg" xmlns:xlink="http://www.w3.org/1999/xlink" viewBox="0 0 30.33 8.75"><defs><style>.cls-1{fill:url(#Безымянный_градиент_71);}.cls-2{fill:#112120;}</style><linearGradient id="Безымянный_градиент_71" x1="3.24" y1="3.8" x2="11.51" y2="3.8" gradientUnits="userSpaceOnUse"><stop offset="0" stop-color="#2de14a"/><stop offset="0.18" stop-color="#2de378"/><stop offset="0.26" stop-color="#2ce485"/><stop offset="0.34" stop-color="#2ce58c"/><stop offset="0.45" stop-color="#2dd1b1"/><stop offset="0.54" stop-color="#2dc3cb"/><stop offset="0.6" stop-color="#2dbed5"/><stop offset="0.85" stop-color="#009aff"/><stop offset="0.88" stop-color="#0092ff"/><stop offset="1" stop-color="#0079ff"/></linearGradient></defs><title>лого</title><path class="cls-1" d="M6.69,1.22l4.81.41L9.92,3.38c-.16.88-.28,1.76-.36,2.65v0a4.87,4.87,0,0,1-1.71,1.1A1.94,1.94,0,0,1,7,7.28l.06,0A5.8,5.8,0,0,1,4.56,5,17.43,17.43,0,0,1,3.24,1.82h0a11,11,0,0,0,1.9-.37A3.67,3.67,0,0,0,7.18.3l.12,0c.19.16.14.09.28.28a2.14,2.14,0,0,0,.83.59A4.47,4.47,0,0,0,11,1.51a1.1,1.1,0,0,1,.51.05l0-.05a2.94,2.94,0,0,1-.3.55C10.34,3.46,8.59,4.19,7,4.74L6.4,6.63" transform="translate(-3.15 -0.2)"/><path class="cls-2" d="M7.17.3C7,2.64,6.93,5,7,7.32c0,0,.18,0,.18,0,0-2.35.05-4.69.21-7,0,0-.17,0-.18,0Z" transform="translate(-3.15 -0.2)"/><path class="cls-2" d="M7.16.26C6.28,1.33,4.6,1.62,3.31,1.79c-.05,0-.19.09-.08.07,1.39-.19,3.15-.48,4.1-1.63,0,0-.14,0-.17,0Z" transform="translate(-3.15 -0.2)"/><path class="cls-2" d="M7.19.27A4.35,4.35,0,0,0,8.9,1.42a4.44,4.44,0,0,0,1,.18,12.54,12.54,0,0,1,1.5,0s.19-.06.14-.07c-.79-.16-1.58.09-2.4-.12A4.14,4.14,0,0,1,7.36.21s-.19,0-.17.06Z" transform="translate(-3.15 -0.2)"/><path class="cls-2" d="M3.15,1.84c.77,2.29,1.58,4.34,3.79,5.54,0,0,.19,0,.17-.06-2.2-1.19-3-3.26-3.78-5.52,0-.05-.19,0-.18,0Z" transform="translate(-3.15 -0.2)"/><path class="cls-2" d="M6.94,7.37A3.93,3.93,0,0,0,9.63,6.12C9.72,6.05,9.58,6,9.52,6A3.78,3.78,0,0,1,7,7.24c-.09,0-.18.12-.06.13Z" transform="translate(-3.15 -0.2)"/><path class="cls-2" d="M11.42,1.55c-.7,1.72-2.69,2.58-4.32,3.14-.11,0,0,.08.07.06,1.66-.58,3.71-1.46,4.43-3.22,0-.05-.16,0-.18,0Z" transform="translate(-3.15 -0.2)"/><path class="cls-2" d="M9.85,3.43c-.15.88-.29,1.75-.38,2.64,0,.09.17.07.18,0,.09-.89.22-1.77.38-2.64,0-.09-.16-.07-.18,0Z" transform="translate(-3.15 -0.2)"/><path class="cls-2" d="M8,2.22c.62.49,1.32.82,1.4,1.72A5.75,5.75,0,0,1,9.18,5.3C9,6.51,8.76,7.72,8.51,8.92c0,.05.11,0,.12,0a25.86,25.86,0,0,0,.87-5c0-.89-.78-1.26-1.42-1.77,0,0-.14,0-.09.06Z" transform="translate(-3.15 -0.2)"/><path class="cls-2" d="M4,2.34A7.37,7.37,0,0,0,6.75,1.25s-.09,0-.11,0a7,7,0,0,1-2.58,1s-.1.06,0,0Z" transform="translate(-3.15 -0.2)"/><path class="cls-2" d="M3.93,2.32A15.21,15.21,0,0,0,6.58,6.69s.13,0,.11,0A14.92,14.92,0,0,1,4.05,2.29s-.13,0-.12,0Z" transform="translate(-3.15 -0.2)"/><path class="cls-2" d="M6.64,1.27c.14,1.81-.2,3.62,0,5.44,0,0,.12,0,.12,0-.15-1.82.19-3.63,0-5.44,0,0-.12,0-.11,0Z" transform="translate(-3.15 -0.2)"/><path class="cls-2" d="M13.58,2.25s0,0,.07,0a.17.17,0,0,1,.09.06.3.3,0,0,1,.07.08l0,.11a.61.61,0,0,1,0,.15.54.54,0,0,1-.12.34.89.89,0,0,1-.3.24.79.79,0,0,1-.31.09.7.7,0,0,1-.36-.1A.32.32,0,0,1,12.62,3a.06.06,0,0,1,0-.06.09.09,0,0,1,.06,0s.08,0,.12.11a.35.35,0,0,0,.14.13.3.3,0,0,0,.17.05A.51.51,0,0,0,13.53,3a.54.54,0,0,0,.16-.3.33.33,0,0,0-.08-.22.26.26,0,0,0-.21-.1.41.41,0,0,0-.17.05.22.22,0,0,1-.14,0,.12.12,0,0,1-.08,0,.06.06,0,0,1,0-.06l0,0,0,0,.08,0a1.42,1.42,0,0,0,.31-.13A.53.53,0,0,0,13.56,2a.37.37,0,0,0,.09-.21c0-.09,0-.13-.12-.13a.57.57,0,0,0-.18,0l-.17.07-.09.06a.25.25,0,0,0-.07.09.18.18,0,0,1-.11.1L12.8,2s-.07,0-.07-.06,0-.1.11-.18a1,1,0,0,1,.32-.22,1.07,1.07,0,0,1,.43-.09.23.23,0,0,1,.18.09.37.37,0,0,1,.07.23A.84.84,0,0,1,13.58,2.25Z" transform="translate(-3.15 -0.2)"/><path class="cls-2" d="M15.75,1.6s0,.18-.05.37a7.26,7.26,0,0,0-.14,1.19.14.14,0,0,1-.05.09.14.14,0,0,1-.1,0l-.06,0a.16.16,0,0,1,0-.07h0a1.16,1.16,0,0,1,0-.15,4.21,4.21,0,0,0,.06-.44v0s0,0-.07,0l-.2,0h-.2l-.23,0-.21,0s0,.07,0,.21a1.78,1.78,0,0,1,0,.39s0,.08-.08.08a.15.15,0,0,1-.08,0,.14.14,0,0,1-.05-.09h0a.44.44,0,0,1,0-.1,1.85,1.85,0,0,0,0-.25c0-.11.06-.42.11-.93l0-.16c0-.05,0-.09,0-.1s0,0,0,0h0c.08,0,.12,0,.12.1v0a2,2,0,0,1,0,.32,2.4,2.4,0,0,0-.05.33h0s0,0,.12,0l.49,0c.2,0,.31-.05.32-.08s0-.12,0-.26a3.4,3.4,0,0,0,0-.45s0,0,0-.06a.16.16,0,0,1,.09,0l.07,0a.07.07,0,0,1,0,.06Z" transform="translate(-3.15 -0.2)"/><path class="cls-2" d="M17,1.67v.05c0,.1.06.18.08.22s.06.15.1.28a3.68,3.68,0,0,0,.24.56A.93.93,0,0,0,17.6,3a1.53,1.53,0,0,1,.13.13.16.16,0,0,1,0,.08.17.17,0,0,1,0,.1.09.09,0,0,1-.08,0s-.12,0-.2-.16a2.9,2.9,0,0,1-.2-.33.68.68,0,0,0-.13-.23l-.22,0a2.17,2.17,0,0,0-.35.07l-.15,0h-.08s-.08.08-.16.24-.15.23-.2.23a.13.13,0,0,1-.08,0s-.05-.05-.05-.08A.83.83,0,0,1,16,2.9l.31-.44L16.52,2c.18-.34.31-.51.37-.51H17s0,0,0,0a.07.07,0,0,1,0,.05S17,1.65,17,1.67Zm.07.78A3.33,3.33,0,0,1,17,2.1a1.94,1.94,0,0,0-.11-.29,2,2,0,0,1-.21.39l-.2.37.13,0,.14,0Z" transform="translate(-3.15 -0.2)"/><path class="cls-2" d="M17.71,1.89a.11.11,0,0,1,0-.06.05.05,0,0,1,0-.06s.09,0,.21,0l.4,0,.54-.06a1.18,1.18,0,0,1,.26,0h.12l.08,0s0,0,0,0a.11.11,0,0,1,0,.05c0,.05,0,.08,0,.08H18.8c-.11,0-.17,0-.18,0a4.36,4.36,0,0,0-.06.44c0,.26,0,.46,0,.58a.88.88,0,0,0,0,.21v0a.16.16,0,0,1,0,.09.09.09,0,0,1-.06,0,.11.11,0,0,1-.1,0,.65.65,0,0,1,0-.31A9.24,9.24,0,0,1,18.42,2v0a0,0,0,0,0,0,0l-.26,0-.26,0A.28.28,0,0,1,17.71,1.89Z" transform="translate(-3.15 -0.2)"/><path class="cls-2" d="M20,3.31h-.2a.39.39,0,0,1-.31-.19.64.64,0,0,1-.13-.37,1.26,1.26,0,0,1,.13-.55,1.41,1.41,0,0,1,.34-.45.65.65,0,0,1,.41-.18h.29a.54.54,0,0,1,.22.05.7.7,0,0,1,.19.14.68.68,0,0,1,.14.23.85.85,0,0,1,.05.26.77.77,0,0,1-.19.45,2,2,0,0,1-.46.45A.9.9,0,0,1,20,3.31Zm.5-1.6h-.09a.28.28,0,0,1-.11,0,.9.9,0,0,0-.27.11,1.24,1.24,0,0,0-.33.37,1.07,1.07,0,0,0-.16.53.39.39,0,0,0,.1.28.31.31,0,0,0,.25.11A.87.87,0,0,0,20.3,3a2,2,0,0,0,.41-.35.67.67,0,0,0,.17-.3V2.29a.51.51,0,0,0-.13-.44A.49.49,0,0,0,20.47,1.71Z" transform="translate(-3.15 -0.2)"/><path class="cls-2" d="M21.77,2.67a.11.11,0,0,1,0,.06s0,.11,0,.24a1.11,1.11,0,0,0,0,.21s0,0,0,.08a.21.21,0,0,1-.1,0s-.05,0-.05-.12a1.16,1.16,0,0,1,0-.17c0-.19,0-.46.05-.79s0-.5,0-.51v0c0-.14,0-.2.13-.2a.09.09,0,0,1,.07,0,.19.19,0,0,1,0,.07,3.64,3.64,0,0,1,0,.57,2,2,0,0,0,0,.22s0,0,0,0a0,0,0,0,0,0,0,2.55,2.55,0,0,0,.38-.33,4.72,4.72,0,0,1,.37-.33l.05,0c.08-.08.14-.13.18-.13a.12.12,0,0,1,.08,0s.05,0,.05.05v0a3.42,3.42,0,0,1-.37.34,5.12,5.12,0,0,0-.47.43l.49.19h0a.18.18,0,0,0,.08,0l.1,0a1.57,1.57,0,0,0,.28.1l.16.05,0,0h0s.05,0,.08.05a.2.2,0,0,1,0,.08.12.12,0,0,1,0,.09l-.09,0A1.14,1.14,0,0,1,23,3l-.33-.13a2.56,2.56,0,0,0-.38-.16,1.68,1.68,0,0,0-.36-.11A.21.21,0,0,0,21.77,2.67Z" transform="translate(-3.15 -0.2)"/><path class="cls-2" d="M25,2.05s-.07.05-.16.15-.29.31-.44.46l-.31.27L24,3.05l-.07.11a.47.47,0,0,1-.06.09.14.14,0,0,1-.11,0c-.05,0-.07,0-.07-.11a2.47,2.47,0,0,1,.05-.34c0-.11,0-.37.08-.76l0-.33a.43.43,0,0,1,.05-.18s.05-.06.08-.06a.1.1,0,0,1,.08.05.11.11,0,0,1,0,.08s0,.07,0,.18S24,2,24,2.21c0,0,0,.06,0,.16a1.52,1.52,0,0,0,0,.19.85.85,0,0,1,0,.13c0,.07,0,.12,0,.14s0,0,0,0a4.86,4.86,0,0,0,.37-.34l.12-.11a2.16,2.16,0,0,0,.31-.31L24.82,2,25,1.75c.06-.09.12-.14.17-.14a.09.09,0,0,1,.07,0,.1.1,0,0,1,0,.07s0,.1,0,.25c0,.45-.08.78-.08,1a.44.44,0,0,0,0,.13l0,.07a.17.17,0,0,1-.06.11s-.06.06-.08.06S25,3.2,25,3A7.21,7.21,0,0,1,25,2.19Z" transform="translate(-3.15 -0.2)"/><path class="cls-2" d="M13,6s0,0,0,0h0l0,0a.19.19,0,0,1-.11,0,.13.13,0,0,1-.08,0s0,0,0-.05a.18.18,0,0,1,0-.09.51.51,0,0,0,0-.09h0V5.67a3.07,3.07,0,0,1,0-.32A3.42,3.42,0,0,1,12.83,5l.06-.31a1.14,1.14,0,0,1,0-.28c0-.08.06-.12.11-.12h.05a.7.7,0,0,0,.27.06h.17l.18,0h.06l.05,0,.07,0s0,0,0,0-.05.11-.13.15a.86.86,0,0,1-.28,0h-.37s0,0-.06.15a1.36,1.36,0,0,0,0,.2A.51.51,0,0,1,13,5a0,0,0,0,0,0,0h0l.09,0,.08,0,.17,0,.17,0a.55.55,0,0,1,.34.1.39.39,0,0,1,.12.31.49.49,0,0,1-.19.39,1.73,1.73,0,0,1-.7.29Zm0-.19.12,0a1.21,1.21,0,0,0,.39-.12.65.65,0,0,0,.29-.19.25.25,0,0,0,.07-.14.33.33,0,0,0-.07-.21.26.26,0,0,0-.19-.08,1.63,1.63,0,0,0-.36,0,.47.47,0,0,0-.19.09.32.32,0,0,0-.06.17,1.43,1.43,0,0,0,0,.29v0A.17.17,0,0,0,13,5.82Z" transform="translate(-3.15 -0.2)"/><path class="cls-2" d="M15.68,4.47a.09.09,0,0,1,0,.07.11.11,0,0,1-.07,0h-.46L15,4.6l-.18,0s0,0-.05.07a.79.79,0,0,1,0,.17,1.35,1.35,0,0,0-.06.27A1.28,1.28,0,0,0,15,5.08a.75.75,0,0,1,.24,0,.09.09,0,0,1,.07,0,.12.12,0,0,1,0,.09.1.1,0,0,1-.06.09l-.13,0a3,3,0,0,0-.38.06c-.1,0-.15,0-.16.07a.43.43,0,0,0,0,.17,1.35,1.35,0,0,0,0,.2.05.05,0,0,0,.06.06h.13l.31-.06.38-.06a.2.2,0,0,1,.1,0,.09.09,0,0,1,0,.09.09.09,0,0,1,0,.08l-.12,0-.26,0a1.52,1.52,0,0,0-.42.06l-.18,0h-.15s-.07,0-.07-.14a.85.85,0,0,1,0-.22l.09-.55a1,1,0,0,0,0-.12,3.73,3.73,0,0,0,.07-.4.09.09,0,0,0,0-.06s0-.06,0-.08a.08.08,0,0,1,0-.05.06.06,0,0,1,.06,0h0l.08,0,.66-.06h.13a.24.24,0,0,1,.15,0s0,0,0,.08Z" transform="translate(-3.15 -0.2)"/><path class="cls-2" d="M16.88,5s0,0,.06,0l.09,0,.07.09a.54.54,0,0,1,0,.11.54.54,0,0,1,0,.15.56.56,0,0,1-.12.34.89.89,0,0,1-.3.24.79.79,0,0,1-.31.09.64.64,0,0,1-.35-.1.31.31,0,0,1-.18-.28.09.09,0,0,1,0-.07l.06,0s.08,0,.12.1a.32.32,0,0,0,.14.14.41.41,0,0,0,.17.05.48.48,0,0,0,.39-.19.49.49,0,0,0,.16-.3.35.35,0,0,0-.08-.22.29.29,0,0,0-.21-.09.33.33,0,0,0-.16.05.26.26,0,0,1-.15,0,.12.12,0,0,1-.08,0s-.05,0-.05-.06l0,0s0,0,0,0l.08,0a1.42,1.42,0,0,0,.31-.13.67.67,0,0,0,.17-.17.46.46,0,0,0,.08-.22.11.11,0,0,0-.12-.12.57.57,0,0,0-.18,0l-.17.07-.09.06a.25.25,0,0,0-.07.09.18.18,0,0,1-.11.1l-.1,0c-.05,0-.08,0-.08-.06a.33.33,0,0,1,.11-.18,1,1,0,0,1,.32-.22,1.08,1.08,0,0,1,.43-.1.24.24,0,0,1,.18.1.35.35,0,0,1,.07.23A.87.87,0,0,1,16.88,5Z" transform="translate(-3.15 -0.2)"/><path class="cls-2" d="M18.09,6h-.2a.38.38,0,0,1-.31-.2.62.62,0,0,1-.13-.37,1.25,1.25,0,0,1,.13-.54,1.41,1.41,0,0,1,.34-.45.65.65,0,0,1,.41-.18h.29a.56.56,0,0,1,.41.19.68.68,0,0,1,.14.23.8.8,0,0,1,0,.26A.8.8,0,0,1,19,5.4a1.92,1.92,0,0,1-.46.44A.92.92,0,0,1,18.09,6Zm.5-1.6H18.5l-.11,0a.9.9,0,0,0-.27.11,1.13,1.13,0,0,0-.33.37,1.07,1.07,0,0,0-.16.53.4.4,0,0,0,.1.28.34.34,0,0,0,.25.11.87.87,0,0,0,.44-.14,2,2,0,0,0,.41-.35.67.67,0,0,0,.17-.3V5a.54.54,0,0,0-.13-.45A.53.53,0,0,0,18.59,4.43Z" transform="translate(-3.15 -0.2)"/><path class="cls-2" d="M20.67,6a.08.08,0,0,1-.08,0,.48.48,0,0,1,0-.21c0-.19.05-.57.13-1.17,0,0,0-.05,0-.05h-.29a.92.92,0,0,0-.4,0s-.06.15-.08.37,0,.23-.07.43a3.36,3.36,0,0,0-.06.5v.07c0,.06,0,.1-.09.1s-.11,0-.11-.15a1.27,1.27,0,0,1,0-.2l.06-.28a1.48,1.48,0,0,1,0-.19,5.2,5.2,0,0,0,.07-.57.05.05,0,0,0-.06-.06c-.07,0-.1,0-.1-.09a.11.11,0,0,1,0-.08.07.07,0,0,1,.06,0,.46.46,0,0,0,.16,0l.06,0a.15.15,0,0,1,.08,0,.82.82,0,0,0,.22,0h.54l.08,0,.09,0H21c.06,0,.09,0,.09.08a.11.11,0,0,1,0,.08.09.09,0,0,1-.08,0l0,0a1.23,1.23,0,0,0-.06.17,4.38,4.38,0,0,0-.07.52c0,.25,0,.48,0,.68v0a.05.05,0,0,1,0,0A.09.09,0,0,1,20.67,6Z" transform="translate(-3.15 -0.2)"/><path class="cls-2" d="M22.27,4.39l0,.05a2,2,0,0,0,.07.22s.06.15.1.28a3.68,3.68,0,0,0,.24.56,1.19,1.19,0,0,0,.16.23,1.53,1.53,0,0,1,.13.13.13.13,0,0,1,0,.08A.17.17,0,0,1,23,6a.12.12,0,0,1-.08,0c-.05,0-.12-.06-.2-.16a2.33,2.33,0,0,1-.2-.34c-.07-.15-.11-.23-.13-.23l-.22,0-.35.08-.15,0h-.08s-.08.08-.16.23-.15.24-.2.24l-.08,0s-.05,0-.05-.08a.83.83,0,0,1,.13-.22l.31-.44c.06-.1.15-.25.25-.45s.31-.52.37-.52l.08,0,0,0a.07.07,0,0,1,0,0A.19.19,0,0,1,22.27,4.39Zm.07.78-.13-.35a1.5,1.5,0,0,0-.11-.29,2.72,2.72,0,0,1-.21.39c-.1.18-.17.3-.2.37l.13,0,.14,0Z" transform="translate(-3.15 -0.2)"/><path class="cls-2" d="M24.37,5.62a0,0,0,0,1,0,0s0,.09-.12.16A1,1,0,0,1,24,6a.83.83,0,0,1-.29.06.55.55,0,0,1-.36-.13.43.43,0,0,1-.16-.37,1.28,1.28,0,0,1,.39-.87,1.06,1.06,0,0,1,.74-.43.29.29,0,0,1,.29.28.71.71,0,0,1,0,.16.17.17,0,0,1-.07.1l-.09,0-.05,0a.14.14,0,0,1,0-.06.89.89,0,0,1,0-.11.74.74,0,0,0,0-.12c0-.07,0-.11-.1-.11a.72.72,0,0,0-.38.17,1.68,1.68,0,0,0-.38.45,1,1,0,0,0-.15.49.37.37,0,0,0,.09.26.34.34,0,0,0,.25.1.86.86,0,0,0,.24,0,1.19,1.19,0,0,0,.25-.13C24.31,5.64,24.35,5.62,24.37,5.62Z" transform="translate(-3.15 -0.2)"/><path class="cls-2" d="M26.38,4.32a2.52,2.52,0,0,1-.06.37,7.21,7.21,0,0,0-.13,1.19.12.12,0,0,1-.06.09A.21.21,0,0,1,26,6L26,6a.06.06,0,0,1,0-.06h0s0-.07,0-.15A4.21,4.21,0,0,0,26,5.33v0s0,0-.06,0l-.2,0h-.21l-.23,0-.21,0a.58.58,0,0,0,0,.21,2.85,2.85,0,0,1,0,.39S25,6,25,6s0,0-.07,0a.14.14,0,0,1-.05-.09h0a.2.2,0,0,1,0-.1,1.85,1.85,0,0,0,0-.25c0-.11.05-.42.11-.93l0-.17a.14.14,0,0,1,0-.09l0,0h0a.13.13,0,0,1,.12.1v0a2.12,2.12,0,0,1,0,.32,1.45,1.45,0,0,0-.05.32h0s0,0,.12,0a4.55,4.55,0,0,0,.48,0c.21,0,.31-.05.32-.08a1.41,1.41,0,0,0,0-.27c0-.14,0-.29,0-.44s0,0,0-.06l.09,0,.07,0s0,0,0,.06Z" transform="translate(-3.15 -0.2)"/><path class="cls-2" d="M27.25,6h-.2a.38.38,0,0,1-.31-.2.63.63,0,0,1-.14-.37,1.27,1.27,0,0,1,.14-.54,1.41,1.41,0,0,1,.34-.45.65.65,0,0,1,.41-.18h.28a.48.48,0,0,1,.22.05.46.46,0,0,1,.19.14.7.7,0,0,1,.15.23.8.8,0,0,1,.05.26.87.87,0,0,1-.19.45,1.92,1.92,0,0,1-.46.44A.92.92,0,0,1,27.25,6Zm.49-1.6h-.09l-.1,0a.9.9,0,0,0-.27.11.94.94,0,0,0-.33.37,1.09,1.09,0,0,0-.17.53.41.41,0,0,0,.11.28.34.34,0,0,0,.24.11.94.94,0,0,0,.45-.14,1.71,1.71,0,0,0,.4-.35.62.62,0,0,0,.18-.3V5A.54.54,0,0,0,28,4.56.47.47,0,0,0,27.74,4.43Z" transform="translate(-3.15 -0.2)"/><path class="cls-2" d="M29.83,5.62s0,0,0,0,0,.09-.12.16a.9.9,0,0,1-.29.16.79.79,0,0,1-.29.06.55.55,0,0,1-.36-.13.46.46,0,0,1-.16-.37A1.28,1.28,0,0,1,29,4.68a1.06,1.06,0,0,1,.74-.43.26.26,0,0,1,.21.09.22.22,0,0,1,.08.19.71.71,0,0,1,0,.16.17.17,0,0,1-.07.1l-.09,0,0,0a.14.14,0,0,1,0-.06.89.89,0,0,1,0-.11.3.3,0,0,0,0-.12c0-.07,0-.11-.1-.11a.69.69,0,0,0-.37.17A1.71,1.71,0,0,0,29,5a1,1,0,0,0-.15.49.37.37,0,0,0,.09.26.34.34,0,0,0,.25.1.79.79,0,0,0,.24,0,1.19,1.19,0,0,0,.25-.13C29.77,5.64,29.81,5.62,29.83,5.62Z" transform="translate(-3.15 -0.2)"/><path class="cls-2" d="M30.15,4.61a.13.13,0,0,1,0-.06.08.08,0,0,1,0-.07l.21,0h.4l.54-.07h.38l.08,0s0,0,0,0a.11.11,0,0,1,0,.05s0,.08-.05.08h-.28l-.27,0c-.11,0-.17,0-.18.05S31,4.78,31,5s0,.46,0,.59a.88.88,0,0,0,0,.21v0A.11.11,0,0,1,31,6a.07.07,0,0,1-.06,0,.12.12,0,0,1-.1,0,.65.65,0,0,1,0-.31,9,9,0,0,1,.09-.94v0a0,0,0,0,0,0,0l-.26,0-.26,0A.26.26,0,0,1,30.15,4.61Z" transform="translate(-3.15 -0.2)"/><path class="cls-2" d="M33.23,4.77s-.07.05-.15.14a3.92,3.92,0,0,1-.45.46,3.71,3.71,0,0,1-.31.28l-.15.12a.72.72,0,0,0-.07.11.41.41,0,0,1-.05.09.16.16,0,0,1-.11,0c-.05,0-.08,0-.08-.11s0-.14.05-.34S32,5.19,32,4.8l0-.33a.56.56,0,0,1,0-.18s.06-.06.08-.06a.15.15,0,0,1,.09,0,.16.16,0,0,1,0,.09s0,.07,0,.18,0,.22,0,.38c0,0,0,.07,0,.17s0,.17,0,.19,0,.06,0,.13a1,1,0,0,0,0,.14v0a3,3,0,0,0,.38-.34l.11-.1a2.16,2.16,0,0,0,.31-.31L33,4.7l.18-.23c.07-.09.13-.14.18-.14a.06.06,0,0,1,.06,0,.11.11,0,0,1,0,.07s0,.09,0,.25a8.43,8.43,0,0,0-.09,1,.26.26,0,0,0,0,.14l0,.07a.21.21,0,0,1,0,.11.21.21,0,0,1-.09,0c-.08,0-.12-.11-.12-.34s0-.39.08-.78Z" transform="translate(-3.15 -0.2)"/></svg>